<svg xmlns="http://www.w3.org/2000/svg" enable-background="new 0 0 64 64" viewBox="0 0 64 64" id="gardener">
  <path d="M24.1,62.6c-7.3,0-14.5-0.9-21.8-2.7c-0.4-0.1-0.6-0.4-0.7-0.7c-1.1-5.8-3-15.6,3.5-19.6c0.6-0.4,1.3-0.7,2.1-1
					c2-0.7,4.2-1.2,6.4-1.6c0.2,0,0.4-0.1,0.5-0.2c1.8-0.7,2.7-2.2,2.8-4.7c0-0.5,0.5-0.9,1-0.9c0.5,0,0.9,0.5,0.9,1
					c-0.1,3.2-1.5,5.4-4,6.4c-0.2,0.1-0.5,0.2-0.8,0.3c0,0-0.1,0-0.1,0c-2.2,0.3-4.2,0.8-6.1,1.5c-0.7,0.3-1.3,0.5-1.8,0.8
					c-4.9,3-4.1,10-2.8,17.1c13.8,3.3,27.7,3.3,41.4,0c0.5-2.6,1-5.6,1-8.3c0-3.5-0.8-6-2.4-7.6c-0.4-0.4-0.9-0.8-1.4-1.1
					c-0.5-0.3-1.1-0.6-1.8-0.8c-1.9-0.7-3.9-1.2-6.1-1.5c0,0-0.1,0-0.1,0c-0.3-0.1-0.6-0.2-0.8-0.3c-0.8-0.3-1.6-0.8-2.2-1.5
					c-1.1-1.2-1.7-2.8-1.7-4.9c0-0.5,0.4-1,0.9-1c0.5,0,1,0.4,1,0.9c0.1,1.6,0.5,2.8,1.2,3.7c0.4,0.4,0.9,0.8,1.5,1
					c0.2,0.1,0.4,0.1,0.6,0.2c2.3,0.3,4.4,0.9,6.4,1.6c0.9,0.3,1.6,0.6,2.2,1c0.7,0.4,1.3,0.9,1.8,1.4c1.9,2.1,2.9,5,2.9,8.9
					c0,3.1-0.6,6.4-1.1,9.3c-0.1,0.4-0.3,0.7-0.7,0.7C38.7,61.8,31.4,62.6,24.1,62.6z"></path>
  <path d="M24.1 36.3c-2.2 0-4.8-1.3-6.8-3.5-.6-.7-1.2-1.4-1.8-2.3-2-3.2-2.8-7.2-2.4-11.6 0-.5.5-.9 1-.9.5 0 .9.5.9 1-.3 4 .4 7.7 2.2 10.5.5.7 1 1.4 1.5 2 2 2.1 4.2 2.9 5.4 2.9 1.3 0 3.4-.8 5.4-2.9.6-.6 1.1-1.3 1.5-2 1.7-2.8 2.5-6.4 2.2-10.5 0-.5.4-1 .9-1 .5 0 1 .4 1 .9.3 4.4-.5 8.5-2.4 11.6-.5.8-1.1 1.6-1.7 2.3C28.9 35 26.3 36.3 24.1 36.3zM24.1 17.6c-2.8 0-5.5-.3-8.2-1-.9-.2-1.6-1.1-1.6-2V7c0-3.1 2.4-5.6 5.4-5.6h8.9c3 0 5.4 2.5 5.4 5.6v7.6c0 1-.7 1.8-1.6 2l0 0C29.6 17.3 26.9 17.6 24.1 17.6zM32.1 15.7L32.1 15.7 32.1 15.7zM19.7 3.3c-1.9 0-3.5 1.7-3.5 3.7v7.6c0 .1.1.2.1.2 5.2 1.2 10.4 1.2 15.6 0 0 0 .1-.1.1-.2V7c0-2-1.6-3.7-3.5-3.7H19.7z"></path>
  <path d="M24.1,20.9c-5.6,0-16.2-1-16.2-4.7c0-1.8,2.4-3.2,7.2-4c0.5-0.1,1,0.3,1.1,0.8c0.1,0.5-0.3,1-0.8,1.1
						c-4.6,0.8-5.6,2-5.6,2.1c0,0.8,5,2.8,14.3,2.8c9.3,0,14.3-2,14.3-2.8c0-0.2-1-1.3-5.6-2.1c-0.5-0.1-0.9-0.6-0.8-1.1
						c0.1-0.5,0.6-0.9,1.1-0.8c4.8,0.8,7.2,2.2,7.2,4C40.3,19.9,29.7,20.9,24.1,20.9z"></path>
  <g>
    <path d="M10.3 49.4c-.5 0-1-.4-1-1v-9.8c0-.5.4-1 1-1 .5 0 1 .4 1 1v9.8C11.3 49 10.8 49.4 10.3 49.4zM13.8 49.4c-.5 0-1-.4-1-1V37.9c0-.5.4-1 1-1 .5 0 1 .4 1 1v10.5C14.8 49 14.3 49.4 13.8 49.4zM34.4 49.4c-.5 0-1-.4-1-1V37.9c0-.5.4-1 1-1s1 .4 1 1v10.5C35.3 49 34.9 49.4 34.4 49.4zM37.9 49.4c-.5 0-1-.4-1-1v-9.8c0-.5.4-1 1-1 .5 0 1 .4 1 1v9.8C38.9 49 38.4 49.4 37.9 49.4z"></path>
  </g>
  <g>
    <path d="M39.9,61.2c-0.5,0-1-0.4-1-1V50.1c0-0.4-0.2-0.7-0.5-0.7H9.8c-0.3,0-0.5,0.3-0.5,0.7v10.1c0,0.5-0.4,1-1,1
				c-0.5,0-1-0.4-1-1V50.1c0-1.4,1.1-2.6,2.4-2.6h28.6c1.3,0,2.4,1.2,2.4,2.6v10.2C40.9,60.8,40.4,61.2,39.9,61.2z"></path>
  </g>
  <g>
    <path d="M24.1,43.3c-0.2,0-0.3,0-0.5-0.1l-8.8-5c-0.5-0.3-0.6-0.8-0.4-1.3c0.3-0.5,0.8-0.6,1.3-0.4l8.3,4.7l8.3-4.7
				c0.5-0.3,1-0.1,1.3,0.4c0.3,0.5,0.1,1-0.4,1.3l-8.8,5C24.4,43.2,24.3,43.3,24.1,43.3z"></path>
  </g>
  <g>
    <path d="M60.7,21.1h-4.1c-0.5,0-1-0.4-1-1c0-0.5,0.4-1,1-1h4.1c0.5,0,0.9-0.3,0.9-0.8v-8.4c0-2.3-4.5-4.7-6.5-5.6
				c-2,0.9-6.5,3.3-6.5,5.6v8.4c0,0.4,0.4,0.8,0.9,0.8h4.1c0.5,0,1,0.4,1,1c0,0.5-0.4,1-1,1h-4.1c-1.5,0-2.8-1.2-2.8-2.7v-8.4
				c0-4.2,7.2-7.1,8-7.5c0.2-0.1,0.5-0.1,0.7,0c0.8,0.3,8,3.3,8,7.5v8.4C63.5,19.9,62.3,21.1,60.7,21.1z"></path>
    <path d="M56.7,43.4c-0.5,0-1-0.4-1-1V15.9c0-0.3-0.3-0.6-0.6-0.6c-0.3,0-0.6,0.3-0.6,0.6v26.6c0,0.5-0.4,1-1,1s-1-0.4-1-1V15.9
				c0-1.4,1.1-2.5,2.5-2.5c1.4,0,2.5,1.1,2.5,2.5v26.6C57.6,43,57.2,43.4,56.7,43.4z"></path>
    <path d="M60,49c-0.5,0-1-0.4-1-1v-2.5c0-1.2-0.9-2.2-2-2.2h-3.9c-1.1,0-2,1-2,2.2v2.5c0,0.5-0.4,1-1,1s-1-0.4-1-1v-2.5
					c0-2.3,1.8-4.1,3.9-4.1H57c2.2,0,3.9,1.8,3.9,4.1v2.5C60.9,48.6,60.5,49,60,49z"></path>
    <path d="M60,47.4h-9.8c-0.5,0-1-0.4-1-1c0-0.5,0.4-1,1-1H60c0.5,0,1,0.4,1,1C60.9,47,60.5,47.4,60,47.4z"></path>
  </g>
</svg>
