<svg id="mahjong" viewBox="0 0 47.5 47.5" xmlns="http://www.w3.org/2000/svg">
    <defs>
        <clipPath id="a">
            <path d="M0 38h38V0H0v38Z"></path>
        </clipPath>
    </defs>
    <g clip-path="url(#a)" transform="matrix(1.25 0 0 -1.25 0 47.5)">
        <path d="M33 5a4 4 0 0 0-4-4H9a4 4 0 0 0-4 4v28a4 4 0 0 0 4 4h20a4 4 0 0 0 4-4V5Z" fill="none" stroke="black"
            stroke-width="1"></path>
        <path d="M20.003 24.578v-6.163c.728.087 1.435.179 2.119.265 1.326.178 2.286.286 2.879.332.048.11.103.232.168.363.199.641.463 1.645.798 3.015.264 1.084.393 1.769.393 2.057 0 .353-.338.529-1.024.529-1.041 0-2.696-.121-4.973-.363-.129 0-.253-.013-.36-.035m-7.259-6.69c1.812.085 3.545.195 5.203.327v6.132a55.914 55.914 0 0 1-4.937-.796 5.076 5.076 0 0 0-.862-.232c0-.264.022-.53.066-.793.266-2.012.442-3.56.53-4.638m-3.346 7.221c.53 0 .995-.078 1.391-.233.244-.066.453-.143.63-.231.795.044 1.612.121 2.453.231 1.104.134 2.463.298 4.075.498v2.319c0 1.613-.188 2.948-.563 4.01-.155.332-.233.551-.233.662 0 .331.133.497.398.497.706 0 1.36-.089 1.954-.266.687-.198 1.028-.453 1.028-.761 0-.111-.042-.342-.133-.696-.265-.685-.395-1.955-.395-3.811v-1.722c1.299.132 2.723.276 4.271.43.706.045 1.38.166 2.022.366.463.088.739.132.83.132.264 0 .837-.222 1.72-.663.928-.552 1.393-.984 1.393-1.293 0-.242-.12-.486-.362-.729-.819-.881-1.408-1.81-1.759-2.783l-.798-1.691a2.755 2.755 0 0 0-.425-.76l.128-.067c.507-.311.76-.586.76-.828 0-.199-.182-.31-.559-.332-1.7 0-3.237-.088-4.607-.266l-2.614-.196-.034-4.443c0-2.009-.069-3.62-.198-4.838-.134-1.368-.334-2.34-.598-2.914C18.93 4.245 18.73 4 18.577 4c-.09 0-.232.266-.431.798-.133.617-.199 1.687-.199 3.214v8.749l-1.789-.167c-1.194-.112-2.111-.168-2.75-.168-.266 0-.488.024-.664.069-.044-.2-.11-.376-.198-.533-.132-.287-.276-.43-.432-.43-.197 0-.385.154-.562.465-.287.438-.442.892-.464 1.358l-.397 2.584c-.155 1.348-.332 2.286-.531 2.818-.111.551-.409 1.081-.894 1.59-.177.11-.266.187-.266.231 0 .354.133.531.398.531" fill="none" stroke="black"
            stroke-width="1"></path>
    </g>
</svg>
