<svg fill="none" height="24" stroke="#000000" stroke-linecap="round" stroke-linejoin="round" stroke-width="2" viewBox="0 0 24 24" width="24" xmlns="http://www.w3.org/2000/svg">
    <path d="M0 0h24v24H0z" fill="none" stroke="none"/>
    <path d="M3 3m0 2a2 2 0 0 1 2 -2h14a2 2 0 0 1 2 2v14a2 2 0 0 1 -2 2h-14a2 2 0 0 1 -2 -2z"/>
    <circle cx="8.5" cy="7.5" fill="#000000" r=".5"/>
    <circle cx="15.5" cy="7.5" fill="#000000" r=".5"/>
    <circle cx="8.5" cy="12" fill="#000000" r=".5"/>
    <circle cx="15.5" cy="12" fill="#000000" r=".5"/>
    <circle cx="15.5" cy="16.5" fill="#000000" r=".5"/>
    <circle cx="8.5" cy="16.5" fill="#000000" r=".5"/>
</svg>