<svg xmlns="http://www.w3.org/2000/svg" viewBox="0 0 64 64" id="poker-cards">
  <path d="M60,13H48V10a3,3,0,0,0-3-3H35V4a3,3,0,0,0-3-3H4A3,3,0,0,0,1,4V48a3,3,0,0,0,3,3H14v3a3,3,0,0,0,3,3H29v3a3,3,0,0,0,3,3H60a3,3,0,0,0,3-3V16A3,3,0,0,0,60,13ZM4,49a1,1,0,0,1-1-1V4A1,1,0,0,1,4,3H32a1,1,0,0,1,1,1V7H17a3,3,0,0,0-3,3V21.586l-4,4a3.415,3.415,0,0,0,0,4.829l4,4V49ZM14,24.414v7.172L11.414,29a1.415,1.415,0,0,1,0-2ZM17,55a1,1,0,0,1-1-1V10a1,1,0,0,1,1-1H45a1,1,0,0,1,1,1v3H32a3,3,0,0,0-3,3v9.654a3.4,3.4,0,0,0-.414.346L23,31.585a3.415,3.415,0,0,0,0,4.829L28.586,42a3.33,3.33,0,0,0,.414.346V55ZM29,39.586,24.414,35a1.415,1.415,0,0,1,0-2L29,28.414ZM61,60a1,1,0,0,1-1,1H32a1,1,0,0,1-1-1V16a1,1,0,0,1,1-1H60a1,1,0,0,1,1,1Z"></path>
  <path d="M12 14V13a2.981 2.981 0 00-.78-2A2.981 2.981 0 0012 9V8A3 3 0 009 5H8A3 3 0 005 8V9a2.981 2.981 0 00.78 2A2.981 2.981 0 005 13v1a3 3 0 003 3H9A3 3 0 0012 14zM7 8A1 1 0 018 7H9a1 1 0 011 1V9a1 1 0 01-1 1H8A1 1 0 017 9zm0 6V13a1 1 0 011-1H9a1 1 0 011 1v1a1 1 0 01-1 1H8A1 1 0 017 14zM25 20V14a3 3 0 00-3-3H21a3 3 0 00-3 3v1a3 3 0 003 3h1a2.966 2.966 0 001-.184V20a1 1 0 01-1 1H21a1 1 0 01-1-1H18a3 3 0 003 3h1A3 3 0 0025 20zm-3-4H21a1 1 0 01-1-1V14a1 1 0 011-1h1a1 1 0 011 1v1A1 1 0 0122 16zM38 24v4h2V20.5a3.5 3.5 0 00-7 0V28h2V24zm-1.5-5A1.5 1.5 0 0138 20.5V22H35V20.5A1.5 1.5 0 0136.5 19zM57 52H54V48H52v7.5a3.5 3.5 0 007 0V48H57zm-1.5 5A1.5 1.5 0 0154 55.5V54h3v1.5A1.5 1.5 0 0155.5 57zM55 39a3.388 3.388 0 00-1-2.414L48.414 31a3.5 3.5 0 00-4.828 0L38 36.585a3.415 3.415 0 000 4.829L43.586 47a3.414 3.414 0 004.828 0L54 41.415A3.392 3.392 0 0055 39zm-2.414 1L47 45.585a1.447 1.447 0 01-2 0L39.414 40a1.415 1.415 0 010-2L45 32.415a1.414 1.414 0 012 0L52.586 38a1.415 1.415 0 010 2z"></path>
</svg>
