<?xml version="1.0" standalone="yes"?>
<svg version="1.1" viewBox="0 0 256 256" xmlns="http://www.w3.org/2000/svg">
    <rect style="fill:#ffffff;shape-rendering:crispEdges;" height="256" width="256" x="0" y="0" />
    <rect style="fill:#000000;shape-rendering:crispEdges;" height="6.2439024390243905" width="6.2439024390243905"
        x="24.975609756097562" y="24.975609756097562" />
    <rect style="fill:#000000;shape-rendering:crispEdges;" height="6.2439024390243905" width="6.2439024390243905"
        x="31.21951219512195" y="24.975609756097562" />
    <rect style="fill:#000000;shape-rendering:crispEdges;" height="6.2439024390243905" width="6.2439024390243905"
        x="37.463414634146346" y="24.975609756097562" />
    <rect style="fill:#000000;shape-rendering:crispEdges;" height="6.2439024390243905" width="6.2439024390243905"
        x="43.707317073170735" y="24.975609756097562" />
    <rect style="fill:#000000;shape-rendering:crispEdges;" height="6.2439024390243905" width="6.2439024390243905"
        x="49.951219512195124" y="24.975609756097562" />
    <rect style="fill:#000000;shape-rendering:crispEdges;" height="6.2439024390243905" width="6.2439024390243905"
        x="56.19512195121951" y="24.975609756097562" />
    <rect style="fill:#000000;shape-rendering:crispEdges;" height="6.2439024390243905" width="6.2439024390243905"
        x="62.43902439024391" y="24.975609756097562" />
    <rect style="fill:#000000;shape-rendering:crispEdges;" height="6.2439024390243905" width="6.2439024390243905"
        x="74.92682926829269" y="24.975609756097562" />
    <rect style="fill:#000000;shape-rendering:crispEdges;" height="6.2439024390243905" width="6.2439024390243905"
        x="81.17073170731707" y="24.975609756097562" />
    <rect style="fill:#000000;shape-rendering:crispEdges;" height="6.2439024390243905" width="6.2439024390243905"
        x="99.90243902439025" y="24.975609756097562" />
    <rect style="fill:#000000;shape-rendering:crispEdges;" height="6.2439024390243905" width="6.2439024390243905"
        x="106.14634146341464" y="24.975609756097562" />
    <rect style="fill:#000000;shape-rendering:crispEdges;" height="6.2439024390243905" width="6.2439024390243905"
        x="112.39024390243904" y="24.975609756097562" />
    <rect style="fill:#000000;shape-rendering:crispEdges;" height="6.2439024390243905" width="6.2439024390243905"
        x="137.3658536585366" y="24.975609756097562" />
    <rect style="fill:#000000;shape-rendering:crispEdges;" height="6.2439024390243905" width="6.2439024390243905"
        x="156.09756097560975" y="24.975609756097562" />
    <rect style="fill:#000000;shape-rendering:crispEdges;" height="6.2439024390243905" width="6.2439024390243905"
        x="162.34146341463415" y="24.975609756097562" />
    <rect style="fill:#000000;shape-rendering:crispEdges;" height="6.2439024390243905" width="6.2439024390243905"
        x="168.58536585365854" y="24.975609756097562" />
    <rect style="fill:#000000;shape-rendering:crispEdges;" height="6.2439024390243905" width="6.2439024390243905"
        x="174.82926829268294" y="24.975609756097562" />
    <rect style="fill:#000000;shape-rendering:crispEdges;" height="6.2439024390243905" width="6.2439024390243905"
        x="187.3170731707317" y="24.975609756097562" />
    <rect style="fill:#000000;shape-rendering:crispEdges;" height="6.2439024390243905" width="6.2439024390243905"
        x="193.5609756097561" y="24.975609756097562" />
    <rect style="fill:#000000;shape-rendering:crispEdges;" height="6.2439024390243905" width="6.2439024390243905"
        x="199.8048780487805" y="24.975609756097562" />
    <rect style="fill:#000000;shape-rendering:crispEdges;" height="6.2439024390243905" width="6.2439024390243905"
        x="206.0487804878049" y="24.975609756097562" />
    <rect style="fill:#000000;shape-rendering:crispEdges;" height="6.2439024390243905" width="6.2439024390243905"
        x="212.29268292682926" y="24.975609756097562" />
    <rect style="fill:#000000;shape-rendering:crispEdges;" height="6.2439024390243905" width="6.2439024390243905"
        x="218.53658536585365" y="24.975609756097562" />
    <rect style="fill:#000000;shape-rendering:crispEdges;" height="6.2439024390243905" width="6.2439024390243905"
        x="224.78048780487805" y="24.975609756097562" />
    <rect style="fill:#000000;shape-rendering:crispEdges;" height="6.2439024390243905" width="6.2439024390243905"
        x="24.975609756097562" y="31.21951219512195" />
    <rect style="fill:#000000;shape-rendering:crispEdges;" height="6.2439024390243905" width="6.2439024390243905"
        x="62.43902439024391" y="31.21951219512195" />
    <rect style="fill:#000000;shape-rendering:crispEdges;" height="6.2439024390243905" width="6.2439024390243905"
        x="81.17073170731707" y="31.21951219512195" />
    <rect style="fill:#000000;shape-rendering:crispEdges;" height="6.2439024390243905" width="6.2439024390243905"
        x="87.41463414634146" y="31.21951219512195" />
    <rect style="fill:#000000;shape-rendering:crispEdges;" height="6.2439024390243905" width="6.2439024390243905"
        x="93.65853658536585" y="31.21951219512195" />
    <rect style="fill:#000000;shape-rendering:crispEdges;" height="6.2439024390243905" width="6.2439024390243905"
        x="106.14634146341464" y="31.21951219512195" />
    <rect style="fill:#000000;shape-rendering:crispEdges;" height="6.2439024390243905" width="6.2439024390243905"
        x="118.6341463414634" y="31.21951219512195" />
    <rect style="fill:#000000;shape-rendering:crispEdges;" height="6.2439024390243905" width="6.2439024390243905"
        x="124.8780487804878" y="31.21951219512195" />
    <rect style="fill:#000000;shape-rendering:crispEdges;" height="6.2439024390243905" width="6.2439024390243905"
        x="174.82926829268294" y="31.21951219512195" />
    <rect style="fill:#000000;shape-rendering:crispEdges;" height="6.2439024390243905" width="6.2439024390243905"
        x="187.3170731707317" y="31.21951219512195" />
    <rect style="fill:#000000;shape-rendering:crispEdges;" height="6.2439024390243905" width="6.2439024390243905"
        x="224.78048780487805" y="31.21951219512195" />
    <rect style="fill:#000000;shape-rendering:crispEdges;" height="6.2439024390243905" width="6.2439024390243905"
        x="24.975609756097562" y="37.463414634146346" />
    <rect style="fill:#000000;shape-rendering:crispEdges;" height="6.2439024390243905" width="6.2439024390243905"
        x="37.463414634146346" y="37.463414634146346" />
    <rect style="fill:#000000;shape-rendering:crispEdges;" height="6.2439024390243905" width="6.2439024390243905"
        x="43.707317073170735" y="37.463414634146346" />
    <rect style="fill:#000000;shape-rendering:crispEdges;" height="6.2439024390243905" width="6.2439024390243905"
        x="49.951219512195124" y="37.463414634146346" />
    <rect style="fill:#000000;shape-rendering:crispEdges;" height="6.2439024390243905" width="6.2439024390243905"
        x="62.43902439024391" y="37.463414634146346" />
    <rect style="fill:#000000;shape-rendering:crispEdges;" height="6.2439024390243905" width="6.2439024390243905"
        x="93.65853658536585" y="37.463414634146346" />
    <rect style="fill:#000000;shape-rendering:crispEdges;" height="6.2439024390243905" width="6.2439024390243905"
        x="99.90243902439025" y="37.463414634146346" />
    <rect style="fill:#000000;shape-rendering:crispEdges;" height="6.2439024390243905" width="6.2439024390243905"
        x="106.14634146341464" y="37.463414634146346" />
    <rect style="fill:#000000;shape-rendering:crispEdges;" height="6.2439024390243905" width="6.2439024390243905"
        x="137.3658536585366" y="37.463414634146346" />
    <rect style="fill:#000000;shape-rendering:crispEdges;" height="6.2439024390243905" width="6.2439024390243905"
        x="156.09756097560975" y="37.463414634146346" />
    <rect style="fill:#000000;shape-rendering:crispEdges;" height="6.2439024390243905" width="6.2439024390243905"
        x="174.82926829268294" y="37.463414634146346" />
    <rect style="fill:#000000;shape-rendering:crispEdges;" height="6.2439024390243905" width="6.2439024390243905"
        x="187.3170731707317" y="37.463414634146346" />
    <rect style="fill:#000000;shape-rendering:crispEdges;" height="6.2439024390243905" width="6.2439024390243905"
        x="199.8048780487805" y="37.463414634146346" />
    <rect style="fill:#000000;shape-rendering:crispEdges;" height="6.2439024390243905" width="6.2439024390243905"
        x="206.0487804878049" y="37.463414634146346" />
    <rect style="fill:#000000;shape-rendering:crispEdges;" height="6.2439024390243905" width="6.2439024390243905"
        x="212.29268292682926" y="37.463414634146346" />
    <rect style="fill:#000000;shape-rendering:crispEdges;" height="6.2439024390243905" width="6.2439024390243905"
        x="224.78048780487805" y="37.463414634146346" />
    <rect style="fill:#000000;shape-rendering:crispEdges;" height="6.2439024390243905" width="6.2439024390243905"
        x="24.975609756097562" y="43.707317073170735" />
    <rect style="fill:#000000;shape-rendering:crispEdges;" height="6.2439024390243905" width="6.2439024390243905"
        x="37.463414634146346" y="43.707317073170735" />
    <rect style="fill:#000000;shape-rendering:crispEdges;" height="6.2439024390243905" width="6.2439024390243905"
        x="43.707317073170735" y="43.707317073170735" />
    <rect style="fill:#000000;shape-rendering:crispEdges;" height="6.2439024390243905" width="6.2439024390243905"
        x="49.951219512195124" y="43.707317073170735" />
    <rect style="fill:#000000;shape-rendering:crispEdges;" height="6.2439024390243905" width="6.2439024390243905"
        x="62.43902439024391" y="43.707317073170735" />
    <rect style="fill:#000000;shape-rendering:crispEdges;" height="6.2439024390243905" width="6.2439024390243905"
        x="81.17073170731707" y="43.707317073170735" />
    <rect style="fill:#000000;shape-rendering:crispEdges;" height="6.2439024390243905" width="6.2439024390243905"
        x="93.65853658536585" y="43.707317073170735" />
    <rect style="fill:#000000;shape-rendering:crispEdges;" height="6.2439024390243905" width="6.2439024390243905"
        x="106.14634146341464" y="43.707317073170735" />
    <rect style="fill:#000000;shape-rendering:crispEdges;" height="6.2439024390243905" width="6.2439024390243905"
        x="112.39024390243904" y="43.707317073170735" />
    <rect style="fill:#000000;shape-rendering:crispEdges;" height="6.2439024390243905" width="6.2439024390243905"
        x="131.1219512195122" y="43.707317073170735" />
    <rect style="fill:#000000;shape-rendering:crispEdges;" height="6.2439024390243905" width="6.2439024390243905"
        x="137.3658536585366" y="43.707317073170735" />
    <rect style="fill:#000000;shape-rendering:crispEdges;" height="6.2439024390243905" width="6.2439024390243905"
        x="143.609756097561" y="43.707317073170735" />
    <rect style="fill:#000000;shape-rendering:crispEdges;" height="6.2439024390243905" width="6.2439024390243905"
        x="156.09756097560975" y="43.707317073170735" />
    <rect style="fill:#000000;shape-rendering:crispEdges;" height="6.2439024390243905" width="6.2439024390243905"
        x="187.3170731707317" y="43.707317073170735" />
    <rect style="fill:#000000;shape-rendering:crispEdges;" height="6.2439024390243905" width="6.2439024390243905"
        x="199.8048780487805" y="43.707317073170735" />
    <rect style="fill:#000000;shape-rendering:crispEdges;" height="6.2439024390243905" width="6.2439024390243905"
        x="206.0487804878049" y="43.707317073170735" />
    <rect style="fill:#000000;shape-rendering:crispEdges;" height="6.2439024390243905" width="6.2439024390243905"
        x="212.29268292682926" y="43.707317073170735" />
    <rect style="fill:#000000;shape-rendering:crispEdges;" height="6.2439024390243905" width="6.2439024390243905"
        x="224.78048780487805" y="43.707317073170735" />
    <rect style="fill:#000000;shape-rendering:crispEdges;" height="6.2439024390243905" width="6.2439024390243905"
        x="24.975609756097562" y="49.951219512195124" />
    <rect style="fill:#000000;shape-rendering:crispEdges;" height="6.2439024390243905" width="6.2439024390243905"
        x="37.463414634146346" y="49.951219512195124" />
    <rect style="fill:#000000;shape-rendering:crispEdges;" height="6.2439024390243905" width="6.2439024390243905"
        x="43.707317073170735" y="49.951219512195124" />
    <rect style="fill:#000000;shape-rendering:crispEdges;" height="6.2439024390243905" width="6.2439024390243905"
        x="49.951219512195124" y="49.951219512195124" />
    <rect style="fill:#000000;shape-rendering:crispEdges;" height="6.2439024390243905" width="6.2439024390243905"
        x="62.43902439024391" y="49.951219512195124" />
    <rect style="fill:#000000;shape-rendering:crispEdges;" height="6.2439024390243905" width="6.2439024390243905"
        x="106.14634146341464" y="49.951219512195124" />
    <rect style="fill:#000000;shape-rendering:crispEdges;" height="6.2439024390243905" width="6.2439024390243905"
        x="112.39024390243904" y="49.951219512195124" />
    <rect style="fill:#000000;shape-rendering:crispEdges;" height="6.2439024390243905" width="6.2439024390243905"
        x="124.8780487804878" y="49.951219512195124" />
    <rect style="fill:#000000;shape-rendering:crispEdges;" height="6.2439024390243905" width="6.2439024390243905"
        x="143.609756097561" y="49.951219512195124" />
    <rect style="fill:#000000;shape-rendering:crispEdges;" height="6.2439024390243905" width="6.2439024390243905"
        x="162.34146341463415" y="49.951219512195124" />
    <rect style="fill:#000000;shape-rendering:crispEdges;" height="6.2439024390243905" width="6.2439024390243905"
        x="187.3170731707317" y="49.951219512195124" />
    <rect style="fill:#000000;shape-rendering:crispEdges;" height="6.2439024390243905" width="6.2439024390243905"
        x="199.8048780487805" y="49.951219512195124" />
    <rect style="fill:#000000;shape-rendering:crispEdges;" height="6.2439024390243905" width="6.2439024390243905"
        x="206.0487804878049" y="49.951219512195124" />
    <rect style="fill:#000000;shape-rendering:crispEdges;" height="6.2439024390243905" width="6.2439024390243905"
        x="212.29268292682926" y="49.951219512195124" />
    <rect style="fill:#000000;shape-rendering:crispEdges;" height="6.2439024390243905" width="6.2439024390243905"
        x="224.78048780487805" y="49.951219512195124" />
    <rect style="fill:#000000;shape-rendering:crispEdges;" height="6.2439024390243905" width="6.2439024390243905"
        x="24.975609756097562" y="56.19512195121951" />
    <rect style="fill:#000000;shape-rendering:crispEdges;" height="6.2439024390243905" width="6.2439024390243905"
        x="62.43902439024391" y="56.19512195121951" />
    <rect style="fill:#000000;shape-rendering:crispEdges;" height="6.2439024390243905" width="6.2439024390243905"
        x="87.41463414634146" y="56.19512195121951" />
    <rect style="fill:#000000;shape-rendering:crispEdges;" height="6.2439024390243905" width="6.2439024390243905"
        x="112.39024390243904" y="56.19512195121951" />
    <rect style="fill:#000000;shape-rendering:crispEdges;" height="6.2439024390243905" width="6.2439024390243905"
        x="131.1219512195122" y="56.19512195121951" />
    <rect style="fill:#000000;shape-rendering:crispEdges;" height="6.2439024390243905" width="6.2439024390243905"
        x="137.3658536585366" y="56.19512195121951" />
    <rect style="fill:#000000;shape-rendering:crispEdges;" height="6.2439024390243905" width="6.2439024390243905"
        x="143.609756097561" y="56.19512195121951" />
    <rect style="fill:#000000;shape-rendering:crispEdges;" height="6.2439024390243905" width="6.2439024390243905"
        x="187.3170731707317" y="56.19512195121951" />
    <rect style="fill:#000000;shape-rendering:crispEdges;" height="6.2439024390243905" width="6.2439024390243905"
        x="224.78048780487805" y="56.19512195121951" />
    <rect style="fill:#000000;shape-rendering:crispEdges;" height="6.2439024390243905" width="6.2439024390243905"
        x="24.975609756097562" y="62.43902439024391" />
    <rect style="fill:#000000;shape-rendering:crispEdges;" height="6.2439024390243905" width="6.2439024390243905"
        x="31.21951219512195" y="62.43902439024391" />
    <rect style="fill:#000000;shape-rendering:crispEdges;" height="6.2439024390243905" width="6.2439024390243905"
        x="37.463414634146346" y="62.43902439024391" />
    <rect style="fill:#000000;shape-rendering:crispEdges;" height="6.2439024390243905" width="6.2439024390243905"
        x="43.707317073170735" y="62.43902439024391" />
    <rect style="fill:#000000;shape-rendering:crispEdges;" height="6.2439024390243905" width="6.2439024390243905"
        x="49.951219512195124" y="62.43902439024391" />
    <rect style="fill:#000000;shape-rendering:crispEdges;" height="6.2439024390243905" width="6.2439024390243905"
        x="56.19512195121951" y="62.43902439024391" />
    <rect style="fill:#000000;shape-rendering:crispEdges;" height="6.2439024390243905" width="6.2439024390243905"
        x="62.43902439024391" y="62.43902439024391" />
    <rect style="fill:#000000;shape-rendering:crispEdges;" height="6.2439024390243905" width="6.2439024390243905"
        x="74.92682926829269" y="62.43902439024391" />
    <rect style="fill:#000000;shape-rendering:crispEdges;" height="6.2439024390243905" width="6.2439024390243905"
        x="87.41463414634146" y="62.43902439024391" />
    <rect style="fill:#000000;shape-rendering:crispEdges;" height="6.2439024390243905" width="6.2439024390243905"
        x="99.90243902439025" y="62.43902439024391" />
    <rect style="fill:#000000;shape-rendering:crispEdges;" height="6.2439024390243905" width="6.2439024390243905"
        x="112.39024390243904" y="62.43902439024391" />
    <rect style="fill:#000000;shape-rendering:crispEdges;" height="6.2439024390243905" width="6.2439024390243905"
        x="124.8780487804878" y="62.43902439024391" />
    <rect style="fill:#000000;shape-rendering:crispEdges;" height="6.2439024390243905" width="6.2439024390243905"
        x="137.3658536585366" y="62.43902439024391" />
    <rect style="fill:#000000;shape-rendering:crispEdges;" height="6.2439024390243905" width="6.2439024390243905"
        x="149.85365853658536" y="62.43902439024391" />
    <rect style="fill:#000000;shape-rendering:crispEdges;" height="6.2439024390243905" width="6.2439024390243905"
        x="162.34146341463415" y="62.43902439024391" />
    <rect style="fill:#000000;shape-rendering:crispEdges;" height="6.2439024390243905" width="6.2439024390243905"
        x="174.82926829268294" y="62.43902439024391" />
    <rect style="fill:#000000;shape-rendering:crispEdges;" height="6.2439024390243905" width="6.2439024390243905"
        x="187.3170731707317" y="62.43902439024391" />
    <rect style="fill:#000000;shape-rendering:crispEdges;" height="6.2439024390243905" width="6.2439024390243905"
        x="193.5609756097561" y="62.43902439024391" />
    <rect style="fill:#000000;shape-rendering:crispEdges;" height="6.2439024390243905" width="6.2439024390243905"
        x="199.8048780487805" y="62.43902439024391" />
    <rect style="fill:#000000;shape-rendering:crispEdges;" height="6.2439024390243905" width="6.2439024390243905"
        x="206.0487804878049" y="62.43902439024391" />
    <rect style="fill:#000000;shape-rendering:crispEdges;" height="6.2439024390243905" width="6.2439024390243905"
        x="212.29268292682926" y="62.43902439024391" />
    <rect style="fill:#000000;shape-rendering:crispEdges;" height="6.2439024390243905" width="6.2439024390243905"
        x="218.53658536585365" y="62.43902439024391" />
    <rect style="fill:#000000;shape-rendering:crispEdges;" height="6.2439024390243905" width="6.2439024390243905"
        x="224.78048780487805" y="62.43902439024391" />
    <rect style="fill:#000000;shape-rendering:crispEdges;" height="6.2439024390243905" width="6.2439024390243905"
        x="81.17073170731707" y="68.6829268292683" />
    <rect style="fill:#000000;shape-rendering:crispEdges;" height="6.2439024390243905" width="6.2439024390243905"
        x="99.90243902439025" y="68.6829268292683" />
    <rect style="fill:#000000;shape-rendering:crispEdges;" height="6.2439024390243905" width="6.2439024390243905"
        x="112.39024390243904" y="68.6829268292683" />
    <rect style="fill:#000000;shape-rendering:crispEdges;" height="6.2439024390243905" width="6.2439024390243905"
        x="131.1219512195122" y="68.6829268292683" />
    <rect style="fill:#000000;shape-rendering:crispEdges;" height="6.2439024390243905" width="6.2439024390243905"
        x="143.609756097561" y="68.6829268292683" />
    <rect style="fill:#000000;shape-rendering:crispEdges;" height="6.2439024390243905" width="6.2439024390243905"
        x="162.34146341463415" y="68.6829268292683" />
    <rect style="fill:#000000;shape-rendering:crispEdges;" height="6.2439024390243905" width="6.2439024390243905"
        x="31.21951219512195" y="74.92682926829269" />
    <rect style="fill:#000000;shape-rendering:crispEdges;" height="6.2439024390243905" width="6.2439024390243905"
        x="37.463414634146346" y="74.92682926829269" />
    <rect style="fill:#000000;shape-rendering:crispEdges;" height="6.2439024390243905" width="6.2439024390243905"
        x="43.707317073170735" y="74.92682926829269" />
    <rect style="fill:#000000;shape-rendering:crispEdges;" height="6.2439024390243905" width="6.2439024390243905"
        x="62.43902439024391" y="74.92682926829269" />
    <rect style="fill:#000000;shape-rendering:crispEdges;" height="6.2439024390243905" width="6.2439024390243905"
        x="68.6829268292683" y="74.92682926829269" />
    <rect style="fill:#000000;shape-rendering:crispEdges;" height="6.2439024390243905" width="6.2439024390243905"
        x="74.92682926829269" y="74.92682926829269" />
    <rect style="fill:#000000;shape-rendering:crispEdges;" height="6.2439024390243905" width="6.2439024390243905"
        x="99.90243902439025" y="74.92682926829269" />
    <rect style="fill:#000000;shape-rendering:crispEdges;" height="6.2439024390243905" width="6.2439024390243905"
        x="106.14634146341464" y="74.92682926829269" />
    <rect style="fill:#000000;shape-rendering:crispEdges;" height="6.2439024390243905" width="6.2439024390243905"
        x="131.1219512195122" y="74.92682926829269" />
    <rect style="fill:#000000;shape-rendering:crispEdges;" height="6.2439024390243905" width="6.2439024390243905"
        x="143.609756097561" y="74.92682926829269" />
    <rect style="fill:#000000;shape-rendering:crispEdges;" height="6.2439024390243905" width="6.2439024390243905"
        x="156.09756097560975" y="74.92682926829269" />
    <rect style="fill:#000000;shape-rendering:crispEdges;" height="6.2439024390243905" width="6.2439024390243905"
        x="162.34146341463415" y="74.92682926829269" />
    <rect style="fill:#000000;shape-rendering:crispEdges;" height="6.2439024390243905" width="6.2439024390243905"
        x="168.58536585365854" y="74.92682926829269" />
    <rect style="fill:#000000;shape-rendering:crispEdges;" height="6.2439024390243905" width="6.2439024390243905"
        x="174.82926829268294" y="74.92682926829269" />
    <rect style="fill:#000000;shape-rendering:crispEdges;" height="6.2439024390243905" width="6.2439024390243905"
        x="181.0731707317073" y="74.92682926829269" />
    <rect style="fill:#000000;shape-rendering:crispEdges;" height="6.2439024390243905" width="6.2439024390243905"
        x="224.78048780487805" y="74.92682926829269" />
    <rect style="fill:#000000;shape-rendering:crispEdges;" height="6.2439024390243905" width="6.2439024390243905"
        x="24.975609756097562" y="81.17073170731707" />
    <rect style="fill:#000000;shape-rendering:crispEdges;" height="6.2439024390243905" width="6.2439024390243905"
        x="43.707317073170735" y="81.17073170731707" />
    <rect style="fill:#000000;shape-rendering:crispEdges;" height="6.2439024390243905" width="6.2439024390243905"
        x="49.951219512195124" y="81.17073170731707" />
    <rect style="fill:#000000;shape-rendering:crispEdges;" height="6.2439024390243905" width="6.2439024390243905"
        x="74.92682926829269" y="81.17073170731707" />
    <rect style="fill:#000000;shape-rendering:crispEdges;" height="6.2439024390243905" width="6.2439024390243905"
        x="81.17073170731707" y="81.17073170731707" />
    <rect style="fill:#000000;shape-rendering:crispEdges;" height="6.2439024390243905" width="6.2439024390243905"
        x="99.90243902439025" y="81.17073170731707" />
    <rect style="fill:#000000;shape-rendering:crispEdges;" height="6.2439024390243905" width="6.2439024390243905"
        x="112.39024390243904" y="81.17073170731707" />
    <rect style="fill:#000000;shape-rendering:crispEdges;" height="6.2439024390243905" width="6.2439024390243905"
        x="118.6341463414634" y="81.17073170731707" />
    <rect style="fill:#000000;shape-rendering:crispEdges;" height="6.2439024390243905" width="6.2439024390243905"
        x="124.8780487804878" y="81.17073170731707" />
    <rect style="fill:#000000;shape-rendering:crispEdges;" height="6.2439024390243905" width="6.2439024390243905"
        x="137.3658536585366" y="81.17073170731707" />
    <rect style="fill:#000000;shape-rendering:crispEdges;" height="6.2439024390243905" width="6.2439024390243905"
        x="143.609756097561" y="81.17073170731707" />
    <rect style="fill:#000000;shape-rendering:crispEdges;" height="6.2439024390243905" width="6.2439024390243905"
        x="156.09756097560975" y="81.17073170731707" />
    <rect style="fill:#000000;shape-rendering:crispEdges;" height="6.2439024390243905" width="6.2439024390243905"
        x="187.3170731707317" y="81.17073170731707" />
    <rect style="fill:#000000;shape-rendering:crispEdges;" height="6.2439024390243905" width="6.2439024390243905"
        x="199.8048780487805" y="81.17073170731707" />
    <rect style="fill:#000000;shape-rendering:crispEdges;" height="6.2439024390243905" width="6.2439024390243905"
        x="218.53658536585365" y="81.17073170731707" />
    <rect style="fill:#000000;shape-rendering:crispEdges;" height="6.2439024390243905" width="6.2439024390243905"
        x="37.463414634146346" y="87.41463414634146" />
    <rect style="fill:#000000;shape-rendering:crispEdges;" height="6.2439024390243905" width="6.2439024390243905"
        x="49.951219512195124" y="87.41463414634146" />
    <rect style="fill:#000000;shape-rendering:crispEdges;" height="6.2439024390243905" width="6.2439024390243905"
        x="62.43902439024391" y="87.41463414634146" />
    <rect style="fill:#000000;shape-rendering:crispEdges;" height="6.2439024390243905" width="6.2439024390243905"
        x="74.92682926829269" y="87.41463414634146" />
    <rect style="fill:#000000;shape-rendering:crispEdges;" height="6.2439024390243905" width="6.2439024390243905"
        x="81.17073170731707" y="87.41463414634146" />
    <rect style="fill:#000000;shape-rendering:crispEdges;" height="6.2439024390243905" width="6.2439024390243905"
        x="87.41463414634146" y="87.41463414634146" />
    <rect style="fill:#000000;shape-rendering:crispEdges;" height="6.2439024390243905" width="6.2439024390243905"
        x="93.65853658536585" y="87.41463414634146" />
    <rect style="fill:#000000;shape-rendering:crispEdges;" height="6.2439024390243905" width="6.2439024390243905"
        x="99.90243902439025" y="87.41463414634146" />
    <rect style="fill:#000000;shape-rendering:crispEdges;" height="6.2439024390243905" width="6.2439024390243905"
        x="106.14634146341464" y="87.41463414634146" />
    <rect style="fill:#000000;shape-rendering:crispEdges;" height="6.2439024390243905" width="6.2439024390243905"
        x="118.6341463414634" y="87.41463414634146" />
    <rect style="fill:#000000;shape-rendering:crispEdges;" height="6.2439024390243905" width="6.2439024390243905"
        x="124.8780487804878" y="87.41463414634146" />
    <rect style="fill:#000000;shape-rendering:crispEdges;" height="6.2439024390243905" width="6.2439024390243905"
        x="137.3658536585366" y="87.41463414634146" />
    <rect style="fill:#000000;shape-rendering:crispEdges;" height="6.2439024390243905" width="6.2439024390243905"
        x="143.609756097561" y="87.41463414634146" />
    <rect style="fill:#000000;shape-rendering:crispEdges;" height="6.2439024390243905" width="6.2439024390243905"
        x="156.09756097560975" y="87.41463414634146" />
    <rect style="fill:#000000;shape-rendering:crispEdges;" height="6.2439024390243905" width="6.2439024390243905"
        x="168.58536585365854" y="87.41463414634146" />
    <rect style="fill:#000000;shape-rendering:crispEdges;" height="6.2439024390243905" width="6.2439024390243905"
        x="37.463414634146346" y="93.65853658536585" />
    <rect style="fill:#000000;shape-rendering:crispEdges;" height="6.2439024390243905" width="6.2439024390243905"
        x="56.19512195121951" y="93.65853658536585" />
    <rect style="fill:#000000;shape-rendering:crispEdges;" height="6.2439024390243905" width="6.2439024390243905"
        x="68.6829268292683" y="93.65853658536585" />
    <rect style="fill:#000000;shape-rendering:crispEdges;" height="6.2439024390243905" width="6.2439024390243905"
        x="74.92682926829269" y="93.65853658536585" />
    <rect style="fill:#000000;shape-rendering:crispEdges;" height="6.2439024390243905" width="6.2439024390243905"
        x="99.90243902439025" y="93.65853658536585" />
    <rect style="fill:#000000;shape-rendering:crispEdges;" height="6.2439024390243905" width="6.2439024390243905"
        x="106.14634146341464" y="93.65853658536585" />
    <rect style="fill:#000000;shape-rendering:crispEdges;" height="6.2439024390243905" width="6.2439024390243905"
        x="131.1219512195122" y="93.65853658536585" />
    <rect style="fill:#000000;shape-rendering:crispEdges;" height="6.2439024390243905" width="6.2439024390243905"
        x="143.609756097561" y="93.65853658536585" />
    <rect style="fill:#000000;shape-rendering:crispEdges;" height="6.2439024390243905" width="6.2439024390243905"
        x="156.09756097560975" y="93.65853658536585" />
    <rect style="fill:#000000;shape-rendering:crispEdges;" height="6.2439024390243905" width="6.2439024390243905"
        x="162.34146341463415" y="93.65853658536585" />
    <rect style="fill:#000000;shape-rendering:crispEdges;" height="6.2439024390243905" width="6.2439024390243905"
        x="168.58536585365854" y="93.65853658536585" />
    <rect style="fill:#000000;shape-rendering:crispEdges;" height="6.2439024390243905" width="6.2439024390243905"
        x="174.82926829268294" y="93.65853658536585" />
    <rect style="fill:#000000;shape-rendering:crispEdges;" height="6.2439024390243905" width="6.2439024390243905"
        x="187.3170731707317" y="93.65853658536585" />
    <rect style="fill:#000000;shape-rendering:crispEdges;" height="6.2439024390243905" width="6.2439024390243905"
        x="206.0487804878049" y="93.65853658536585" />
    <rect style="fill:#000000;shape-rendering:crispEdges;" height="6.2439024390243905" width="6.2439024390243905"
        x="212.29268292682926" y="93.65853658536585" />
    <rect style="fill:#000000;shape-rendering:crispEdges;" height="6.2439024390243905" width="6.2439024390243905"
        x="218.53658536585365" y="93.65853658536585" />
    <rect style="fill:#000000;shape-rendering:crispEdges;" height="6.2439024390243905" width="6.2439024390243905"
        x="224.78048780487805" y="93.65853658536585" />
    <rect style="fill:#000000;shape-rendering:crispEdges;" height="6.2439024390243905" width="6.2439024390243905"
        x="31.21951219512195" y="99.90243902439025" />
    <rect style="fill:#000000;shape-rendering:crispEdges;" height="6.2439024390243905" width="6.2439024390243905"
        x="43.707317073170735" y="99.90243902439025" />
    <rect style="fill:#000000;shape-rendering:crispEdges;" height="6.2439024390243905" width="6.2439024390243905"
        x="62.43902439024391" y="99.90243902439025" />
    <rect style="fill:#000000;shape-rendering:crispEdges;" height="6.2439024390243905" width="6.2439024390243905"
        x="87.41463414634146" y="99.90243902439025" />
    <rect style="fill:#000000;shape-rendering:crispEdges;" height="6.2439024390243905" width="6.2439024390243905"
        x="99.90243902439025" y="99.90243902439025" />
    <rect style="fill:#000000;shape-rendering:crispEdges;" height="6.2439024390243905" width="6.2439024390243905"
        x="106.14634146341464" y="99.90243902439025" />
    <rect style="fill:#000000;shape-rendering:crispEdges;" height="6.2439024390243905" width="6.2439024390243905"
        x="112.39024390243904" y="99.90243902439025" />
    <rect style="fill:#000000;shape-rendering:crispEdges;" height="6.2439024390243905" width="6.2439024390243905"
        x="118.6341463414634" y="99.90243902439025" />
    <rect style="fill:#000000;shape-rendering:crispEdges;" height="6.2439024390243905" width="6.2439024390243905"
        x="137.3658536585366" y="99.90243902439025" />
    <rect style="fill:#000000;shape-rendering:crispEdges;" height="6.2439024390243905" width="6.2439024390243905"
        x="143.609756097561" y="99.90243902439025" />
    <rect style="fill:#000000;shape-rendering:crispEdges;" height="6.2439024390243905" width="6.2439024390243905"
        x="156.09756097560975" y="99.90243902439025" />
    <rect style="fill:#000000;shape-rendering:crispEdges;" height="6.2439024390243905" width="6.2439024390243905"
        x="168.58536585365854" y="99.90243902439025" />
    <rect style="fill:#000000;shape-rendering:crispEdges;" height="6.2439024390243905" width="6.2439024390243905"
        x="181.0731707317073" y="99.90243902439025" />
    <rect style="fill:#000000;shape-rendering:crispEdges;" height="6.2439024390243905" width="6.2439024390243905"
        x="187.3170731707317" y="99.90243902439025" />
    <rect style="fill:#000000;shape-rendering:crispEdges;" height="6.2439024390243905" width="6.2439024390243905"
        x="206.0487804878049" y="99.90243902439025" />
    <rect style="fill:#000000;shape-rendering:crispEdges;" height="6.2439024390243905" width="6.2439024390243905"
        x="212.29268292682926" y="99.90243902439025" />
    <rect style="fill:#000000;shape-rendering:crispEdges;" height="6.2439024390243905" width="6.2439024390243905"
        x="31.21951219512195" y="106.14634146341464" />
    <rect style="fill:#000000;shape-rendering:crispEdges;" height="6.2439024390243905" width="6.2439024390243905"
        x="37.463414634146346" y="106.14634146341464" />
    <rect style="fill:#000000;shape-rendering:crispEdges;" height="6.2439024390243905" width="6.2439024390243905"
        x="56.19512195121951" y="106.14634146341464" />
    <rect style="fill:#000000;shape-rendering:crispEdges;" height="6.2439024390243905" width="6.2439024390243905"
        x="74.92682926829269" y="106.14634146341464" />
    <rect style="fill:#000000;shape-rendering:crispEdges;" height="6.2439024390243905" width="6.2439024390243905"
        x="99.90243902439025" y="106.14634146341464" />
    <rect style="fill:#000000;shape-rendering:crispEdges;" height="6.2439024390243905" width="6.2439024390243905"
        x="106.14634146341464" y="106.14634146341464" />
    <rect style="fill:#000000;shape-rendering:crispEdges;" height="6.2439024390243905" width="6.2439024390243905"
        x="131.1219512195122" y="106.14634146341464" />
    <rect style="fill:#000000;shape-rendering:crispEdges;" height="6.2439024390243905" width="6.2439024390243905"
        x="143.609756097561" y="106.14634146341464" />
    <rect style="fill:#000000;shape-rendering:crispEdges;" height="6.2439024390243905" width="6.2439024390243905"
        x="174.82926829268294" y="106.14634146341464" />
    <rect style="fill:#000000;shape-rendering:crispEdges;" height="6.2439024390243905" width="6.2439024390243905"
        x="193.5609756097561" y="106.14634146341464" />
    <rect style="fill:#000000;shape-rendering:crispEdges;" height="6.2439024390243905" width="6.2439024390243905"
        x="199.8048780487805" y="106.14634146341464" />
    <rect style="fill:#000000;shape-rendering:crispEdges;" height="6.2439024390243905" width="6.2439024390243905"
        x="206.0487804878049" y="106.14634146341464" />
    <rect style="fill:#000000;shape-rendering:crispEdges;" height="6.2439024390243905" width="6.2439024390243905"
        x="218.53658536585365" y="106.14634146341464" />
    <rect style="fill:#000000;shape-rendering:crispEdges;" height="6.2439024390243905" width="6.2439024390243905"
        x="31.21951219512195" y="112.39024390243904" />
    <rect style="fill:#000000;shape-rendering:crispEdges;" height="6.2439024390243905" width="6.2439024390243905"
        x="56.19512195121951" y="112.39024390243904" />
    <rect style="fill:#000000;shape-rendering:crispEdges;" height="6.2439024390243905" width="6.2439024390243905"
        x="62.43902439024391" y="112.39024390243904" />
    <rect style="fill:#000000;shape-rendering:crispEdges;" height="6.2439024390243905" width="6.2439024390243905"
        x="68.6829268292683" y="112.39024390243904" />
    <rect style="fill:#000000;shape-rendering:crispEdges;" height="6.2439024390243905" width="6.2439024390243905"
        x="74.92682926829269" y="112.39024390243904" />
    <rect style="fill:#000000;shape-rendering:crispEdges;" height="6.2439024390243905" width="6.2439024390243905"
        x="81.17073170731707" y="112.39024390243904" />
    <rect style="fill:#000000;shape-rendering:crispEdges;" height="6.2439024390243905" width="6.2439024390243905"
        x="93.65853658536585" y="112.39024390243904" />
    <rect style="fill:#000000;shape-rendering:crispEdges;" height="6.2439024390243905" width="6.2439024390243905"
        x="99.90243902439025" y="112.39024390243904" />
    <rect style="fill:#000000;shape-rendering:crispEdges;" height="6.2439024390243905" width="6.2439024390243905"
        x="106.14634146341464" y="112.39024390243904" />
    <rect style="fill:#000000;shape-rendering:crispEdges;" height="6.2439024390243905" width="6.2439024390243905"
        x="112.39024390243904" y="112.39024390243904" />
    <rect style="fill:#000000;shape-rendering:crispEdges;" height="6.2439024390243905" width="6.2439024390243905"
        x="118.6341463414634" y="112.39024390243904" />
    <rect style="fill:#000000;shape-rendering:crispEdges;" height="6.2439024390243905" width="6.2439024390243905"
        x="137.3658536585366" y="112.39024390243904" />
    <rect style="fill:#000000;shape-rendering:crispEdges;" height="6.2439024390243905" width="6.2439024390243905"
        x="156.09756097560975" y="112.39024390243904" />
    <rect style="fill:#000000;shape-rendering:crispEdges;" height="6.2439024390243905" width="6.2439024390243905"
        x="168.58536585365854" y="112.39024390243904" />
    <rect style="fill:#000000;shape-rendering:crispEdges;" height="6.2439024390243905" width="6.2439024390243905"
        x="181.0731707317073" y="112.39024390243904" />
    <rect style="fill:#000000;shape-rendering:crispEdges;" height="6.2439024390243905" width="6.2439024390243905"
        x="193.5609756097561" y="112.39024390243904" />
    <rect style="fill:#000000;shape-rendering:crispEdges;" height="6.2439024390243905" width="6.2439024390243905"
        x="206.0487804878049" y="112.39024390243904" />
    <rect style="fill:#000000;shape-rendering:crispEdges;" height="6.2439024390243905" width="6.2439024390243905"
        x="43.707317073170735" y="118.6341463414634" />
    <rect style="fill:#000000;shape-rendering:crispEdges;" height="6.2439024390243905" width="6.2439024390243905"
        x="49.951219512195124" y="118.6341463414634" />
    <rect style="fill:#000000;shape-rendering:crispEdges;" height="6.2439024390243905" width="6.2439024390243905"
        x="74.92682926829269" y="118.6341463414634" />
    <rect style="fill:#000000;shape-rendering:crispEdges;" height="6.2439024390243905" width="6.2439024390243905"
        x="81.17073170731707" y="118.6341463414634" />
    <rect style="fill:#000000;shape-rendering:crispEdges;" height="6.2439024390243905" width="6.2439024390243905"
        x="87.41463414634146" y="118.6341463414634" />
    <rect style="fill:#000000;shape-rendering:crispEdges;" height="6.2439024390243905" width="6.2439024390243905"
        x="99.90243902439025" y="118.6341463414634" />
    <rect style="fill:#000000;shape-rendering:crispEdges;" height="6.2439024390243905" width="6.2439024390243905"
        x="118.6341463414634" y="118.6341463414634" />
    <rect style="fill:#000000;shape-rendering:crispEdges;" height="6.2439024390243905" width="6.2439024390243905"
        x="131.1219512195122" y="118.6341463414634" />
    <rect style="fill:#000000;shape-rendering:crispEdges;" height="6.2439024390243905" width="6.2439024390243905"
        x="137.3658536585366" y="118.6341463414634" />
    <rect style="fill:#000000;shape-rendering:crispEdges;" height="6.2439024390243905" width="6.2439024390243905"
        x="143.609756097561" y="118.6341463414634" />
    <rect style="fill:#000000;shape-rendering:crispEdges;" height="6.2439024390243905" width="6.2439024390243905"
        x="162.34146341463415" y="118.6341463414634" />
    <rect style="fill:#000000;shape-rendering:crispEdges;" height="6.2439024390243905" width="6.2439024390243905"
        x="174.82926829268294" y="118.6341463414634" />
    <rect style="fill:#000000;shape-rendering:crispEdges;" height="6.2439024390243905" width="6.2439024390243905"
        x="181.0731707317073" y="118.6341463414634" />
    <rect style="fill:#000000;shape-rendering:crispEdges;" height="6.2439024390243905" width="6.2439024390243905"
        x="187.3170731707317" y="118.6341463414634" />
    <rect style="fill:#000000;shape-rendering:crispEdges;" height="6.2439024390243905" width="6.2439024390243905"
        x="218.53658536585365" y="118.6341463414634" />
    <rect style="fill:#000000;shape-rendering:crispEdges;" height="6.2439024390243905" width="6.2439024390243905"
        x="31.21951219512195" y="124.8780487804878" />
    <rect style="fill:#000000;shape-rendering:crispEdges;" height="6.2439024390243905" width="6.2439024390243905"
        x="37.463414634146346" y="124.8780487804878" />
    <rect style="fill:#000000;shape-rendering:crispEdges;" height="6.2439024390243905" width="6.2439024390243905"
        x="56.19512195121951" y="124.8780487804878" />
    <rect style="fill:#000000;shape-rendering:crispEdges;" height="6.2439024390243905" width="6.2439024390243905"
        x="62.43902439024391" y="124.8780487804878" />
    <rect style="fill:#000000;shape-rendering:crispEdges;" height="6.2439024390243905" width="6.2439024390243905"
        x="93.65853658536585" y="124.8780487804878" />
    <rect style="fill:#000000;shape-rendering:crispEdges;" height="6.2439024390243905" width="6.2439024390243905"
        x="99.90243902439025" y="124.8780487804878" />
    <rect style="fill:#000000;shape-rendering:crispEdges;" height="6.2439024390243905" width="6.2439024390243905"
        x="106.14634146341464" y="124.8780487804878" />
    <rect style="fill:#000000;shape-rendering:crispEdges;" height="6.2439024390243905" width="6.2439024390243905"
        x="131.1219512195122" y="124.8780487804878" />
    <rect style="fill:#000000;shape-rendering:crispEdges;" height="6.2439024390243905" width="6.2439024390243905"
        x="143.609756097561" y="124.8780487804878" />
    <rect style="fill:#000000;shape-rendering:crispEdges;" height="6.2439024390243905" width="6.2439024390243905"
        x="149.85365853658536" y="124.8780487804878" />
    <rect style="fill:#000000;shape-rendering:crispEdges;" height="6.2439024390243905" width="6.2439024390243905"
        x="156.09756097560975" y="124.8780487804878" />
    <rect style="fill:#000000;shape-rendering:crispEdges;" height="6.2439024390243905" width="6.2439024390243905"
        x="162.34146341463415" y="124.8780487804878" />
    <rect style="fill:#000000;shape-rendering:crispEdges;" height="6.2439024390243905" width="6.2439024390243905"
        x="174.82926829268294" y="124.8780487804878" />
    <rect style="fill:#000000;shape-rendering:crispEdges;" height="6.2439024390243905" width="6.2439024390243905"
        x="187.3170731707317" y="124.8780487804878" />
    <rect style="fill:#000000;shape-rendering:crispEdges;" height="6.2439024390243905" width="6.2439024390243905"
        x="206.0487804878049" y="124.8780487804878" />
    <rect style="fill:#000000;shape-rendering:crispEdges;" height="6.2439024390243905" width="6.2439024390243905"
        x="212.29268292682926" y="124.8780487804878" />
    <rect style="fill:#000000;shape-rendering:crispEdges;" height="6.2439024390243905" width="6.2439024390243905"
        x="218.53658536585365" y="124.8780487804878" />
    <rect style="fill:#000000;shape-rendering:crispEdges;" height="6.2439024390243905" width="6.2439024390243905"
        x="31.21951219512195" y="131.1219512195122" />
    <rect style="fill:#000000;shape-rendering:crispEdges;" height="6.2439024390243905" width="6.2439024390243905"
        x="37.463414634146346" y="131.1219512195122" />
    <rect style="fill:#000000;shape-rendering:crispEdges;" height="6.2439024390243905" width="6.2439024390243905"
        x="49.951219512195124" y="131.1219512195122" />
    <rect style="fill:#000000;shape-rendering:crispEdges;" height="6.2439024390243905" width="6.2439024390243905"
        x="74.92682926829269" y="131.1219512195122" />
    <rect style="fill:#000000;shape-rendering:crispEdges;" height="6.2439024390243905" width="6.2439024390243905"
        x="99.90243902439025" y="131.1219512195122" />
    <rect style="fill:#000000;shape-rendering:crispEdges;" height="6.2439024390243905" width="6.2439024390243905"
        x="106.14634146341464" y="131.1219512195122" />
    <rect style="fill:#000000;shape-rendering:crispEdges;" height="6.2439024390243905" width="6.2439024390243905"
        x="112.39024390243904" y="131.1219512195122" />
    <rect style="fill:#000000;shape-rendering:crispEdges;" height="6.2439024390243905" width="6.2439024390243905"
        x="124.8780487804878" y="131.1219512195122" />
    <rect style="fill:#000000;shape-rendering:crispEdges;" height="6.2439024390243905" width="6.2439024390243905"
        x="131.1219512195122" y="131.1219512195122" />
    <rect style="fill:#000000;shape-rendering:crispEdges;" height="6.2439024390243905" width="6.2439024390243905"
        x="143.609756097561" y="131.1219512195122" />
    <rect style="fill:#000000;shape-rendering:crispEdges;" height="6.2439024390243905" width="6.2439024390243905"
        x="162.34146341463415" y="131.1219512195122" />
    <rect style="fill:#000000;shape-rendering:crispEdges;" height="6.2439024390243905" width="6.2439024390243905"
        x="206.0487804878049" y="131.1219512195122" />
    <rect style="fill:#000000;shape-rendering:crispEdges;" height="6.2439024390243905" width="6.2439024390243905"
        x="224.78048780487805" y="131.1219512195122" />
    <rect style="fill:#000000;shape-rendering:crispEdges;" height="6.2439024390243905" width="6.2439024390243905"
        x="24.975609756097562" y="137.3658536585366" />
    <rect style="fill:#000000;shape-rendering:crispEdges;" height="6.2439024390243905" width="6.2439024390243905"
        x="37.463414634146346" y="137.3658536585366" />
    <rect style="fill:#000000;shape-rendering:crispEdges;" height="6.2439024390243905" width="6.2439024390243905"
        x="49.951219512195124" y="137.3658536585366" />
    <rect style="fill:#000000;shape-rendering:crispEdges;" height="6.2439024390243905" width="6.2439024390243905"
        x="56.19512195121951" y="137.3658536585366" />
    <rect style="fill:#000000;shape-rendering:crispEdges;" height="6.2439024390243905" width="6.2439024390243905"
        x="62.43902439024391" y="137.3658536585366" />
    <rect style="fill:#000000;shape-rendering:crispEdges;" height="6.2439024390243905" width="6.2439024390243905"
        x="74.92682926829269" y="137.3658536585366" />
    <rect style="fill:#000000;shape-rendering:crispEdges;" height="6.2439024390243905" width="6.2439024390243905"
        x="81.17073170731707" y="137.3658536585366" />
    <rect style="fill:#000000;shape-rendering:crispEdges;" height="6.2439024390243905" width="6.2439024390243905"
        x="87.41463414634146" y="137.3658536585366" />
    <rect style="fill:#000000;shape-rendering:crispEdges;" height="6.2439024390243905" width="6.2439024390243905"
        x="99.90243902439025" y="137.3658536585366" />
    <rect style="fill:#000000;shape-rendering:crispEdges;" height="6.2439024390243905" width="6.2439024390243905"
        x="118.6341463414634" y="137.3658536585366" />
    <rect style="fill:#000000;shape-rendering:crispEdges;" height="6.2439024390243905" width="6.2439024390243905"
        x="131.1219512195122" y="137.3658536585366" />
    <rect style="fill:#000000;shape-rendering:crispEdges;" height="6.2439024390243905" width="6.2439024390243905"
        x="143.609756097561" y="137.3658536585366" />
    <rect style="fill:#000000;shape-rendering:crispEdges;" height="6.2439024390243905" width="6.2439024390243905"
        x="156.09756097560975" y="137.3658536585366" />
    <rect style="fill:#000000;shape-rendering:crispEdges;" height="6.2439024390243905" width="6.2439024390243905"
        x="162.34146341463415" y="137.3658536585366" />
    <rect style="fill:#000000;shape-rendering:crispEdges;" height="6.2439024390243905" width="6.2439024390243905"
        x="181.0731707317073" y="137.3658536585366" />
    <rect style="fill:#000000;shape-rendering:crispEdges;" height="6.2439024390243905" width="6.2439024390243905"
        x="187.3170731707317" y="137.3658536585366" />
    <rect style="fill:#000000;shape-rendering:crispEdges;" height="6.2439024390243905" width="6.2439024390243905"
        x="199.8048780487805" y="137.3658536585366" />
    <rect style="fill:#000000;shape-rendering:crispEdges;" height="6.2439024390243905" width="6.2439024390243905"
        x="43.707317073170735" y="143.609756097561" />
    <rect style="fill:#000000;shape-rendering:crispEdges;" height="6.2439024390243905" width="6.2439024390243905"
        x="81.17073170731707" y="143.609756097561" />
    <rect style="fill:#000000;shape-rendering:crispEdges;" height="6.2439024390243905" width="6.2439024390243905"
        x="93.65853658536585" y="143.609756097561" />
    <rect style="fill:#000000;shape-rendering:crispEdges;" height="6.2439024390243905" width="6.2439024390243905"
        x="99.90243902439025" y="143.609756097561" />
    <rect style="fill:#000000;shape-rendering:crispEdges;" height="6.2439024390243905" width="6.2439024390243905"
        x="112.39024390243904" y="143.609756097561" />
    <rect style="fill:#000000;shape-rendering:crispEdges;" height="6.2439024390243905" width="6.2439024390243905"
        x="118.6341463414634" y="143.609756097561" />
    <rect style="fill:#000000;shape-rendering:crispEdges;" height="6.2439024390243905" width="6.2439024390243905"
        x="124.8780487804878" y="143.609756097561" />
    <rect style="fill:#000000;shape-rendering:crispEdges;" height="6.2439024390243905" width="6.2439024390243905"
        x="131.1219512195122" y="143.609756097561" />
    <rect style="fill:#000000;shape-rendering:crispEdges;" height="6.2439024390243905" width="6.2439024390243905"
        x="137.3658536585366" y="143.609756097561" />
    <rect style="fill:#000000;shape-rendering:crispEdges;" height="6.2439024390243905" width="6.2439024390243905"
        x="174.82926829268294" y="143.609756097561" />
    <rect style="fill:#000000;shape-rendering:crispEdges;" height="6.2439024390243905" width="6.2439024390243905"
        x="181.0731707317073" y="143.609756097561" />
    <rect style="fill:#000000;shape-rendering:crispEdges;" height="6.2439024390243905" width="6.2439024390243905"
        x="218.53658536585365" y="143.609756097561" />
    <rect style="fill:#000000;shape-rendering:crispEdges;" height="6.2439024390243905" width="6.2439024390243905"
        x="224.78048780487805" y="143.609756097561" />
    <rect style="fill:#000000;shape-rendering:crispEdges;" height="6.2439024390243905" width="6.2439024390243905"
        x="31.21951219512195" y="149.85365853658536" />
    <rect style="fill:#000000;shape-rendering:crispEdges;" height="6.2439024390243905" width="6.2439024390243905"
        x="56.19512195121951" y="149.85365853658536" />
    <rect style="fill:#000000;shape-rendering:crispEdges;" height="6.2439024390243905" width="6.2439024390243905"
        x="62.43902439024391" y="149.85365853658536" />
    <rect style="fill:#000000;shape-rendering:crispEdges;" height="6.2439024390243905" width="6.2439024390243905"
        x="74.92682926829269" y="149.85365853658536" />
    <rect style="fill:#000000;shape-rendering:crispEdges;" height="6.2439024390243905" width="6.2439024390243905"
        x="93.65853658536585" y="149.85365853658536" />
    <rect style="fill:#000000;shape-rendering:crispEdges;" height="6.2439024390243905" width="6.2439024390243905"
        x="99.90243902439025" y="149.85365853658536" />
    <rect style="fill:#000000;shape-rendering:crispEdges;" height="6.2439024390243905" width="6.2439024390243905"
        x="106.14634146341464" y="149.85365853658536" />
    <rect style="fill:#000000;shape-rendering:crispEdges;" height="6.2439024390243905" width="6.2439024390243905"
        x="124.8780487804878" y="149.85365853658536" />
    <rect style="fill:#000000;shape-rendering:crispEdges;" height="6.2439024390243905" width="6.2439024390243905"
        x="131.1219512195122" y="149.85365853658536" />
    <rect style="fill:#000000;shape-rendering:crispEdges;" height="6.2439024390243905" width="6.2439024390243905"
        x="143.609756097561" y="149.85365853658536" />
    <rect style="fill:#000000;shape-rendering:crispEdges;" height="6.2439024390243905" width="6.2439024390243905"
        x="149.85365853658536" y="149.85365853658536" />
    <rect style="fill:#000000;shape-rendering:crispEdges;" height="6.2439024390243905" width="6.2439024390243905"
        x="156.09756097560975" y="149.85365853658536" />
    <rect style="fill:#000000;shape-rendering:crispEdges;" height="6.2439024390243905" width="6.2439024390243905"
        x="162.34146341463415" y="149.85365853658536" />
    <rect style="fill:#000000;shape-rendering:crispEdges;" height="6.2439024390243905" width="6.2439024390243905"
        x="174.82926829268294" y="149.85365853658536" />
    <rect style="fill:#000000;shape-rendering:crispEdges;" height="6.2439024390243905" width="6.2439024390243905"
        x="181.0731707317073" y="149.85365853658536" />
    <rect style="fill:#000000;shape-rendering:crispEdges;" height="6.2439024390243905" width="6.2439024390243905"
        x="206.0487804878049" y="149.85365853658536" />
    <rect style="fill:#000000;shape-rendering:crispEdges;" height="6.2439024390243905" width="6.2439024390243905"
        x="212.29268292682926" y="149.85365853658536" />
    <rect style="fill:#000000;shape-rendering:crispEdges;" height="6.2439024390243905" width="6.2439024390243905"
        x="218.53658536585365" y="149.85365853658536" />
    <rect style="fill:#000000;shape-rendering:crispEdges;" height="6.2439024390243905" width="6.2439024390243905"
        x="31.21951219512195" y="156.09756097560975" />
    <rect style="fill:#000000;shape-rendering:crispEdges;" height="6.2439024390243905" width="6.2439024390243905"
        x="49.951219512195124" y="156.09756097560975" />
    <rect style="fill:#000000;shape-rendering:crispEdges;" height="6.2439024390243905" width="6.2439024390243905"
        x="87.41463414634146" y="156.09756097560975" />
    <rect style="fill:#000000;shape-rendering:crispEdges;" height="6.2439024390243905" width="6.2439024390243905"
        x="99.90243902439025" y="156.09756097560975" />
    <rect style="fill:#000000;shape-rendering:crispEdges;" height="6.2439024390243905" width="6.2439024390243905"
        x="131.1219512195122" y="156.09756097560975" />
    <rect style="fill:#000000;shape-rendering:crispEdges;" height="6.2439024390243905" width="6.2439024390243905"
        x="143.609756097561" y="156.09756097560975" />
    <rect style="fill:#000000;shape-rendering:crispEdges;" height="6.2439024390243905" width="6.2439024390243905"
        x="149.85365853658536" y="156.09756097560975" />
    <rect style="fill:#000000;shape-rendering:crispEdges;" height="6.2439024390243905" width="6.2439024390243905"
        x="187.3170731707317" y="156.09756097560975" />
    <rect style="fill:#000000;shape-rendering:crispEdges;" height="6.2439024390243905" width="6.2439024390243905"
        x="199.8048780487805" y="156.09756097560975" />
    <rect style="fill:#000000;shape-rendering:crispEdges;" height="6.2439024390243905" width="6.2439024390243905"
        x="206.0487804878049" y="156.09756097560975" />
    <rect style="fill:#000000;shape-rendering:crispEdges;" height="6.2439024390243905" width="6.2439024390243905"
        x="24.975609756097562" y="162.34146341463415" />
    <rect style="fill:#000000;shape-rendering:crispEdges;" height="6.2439024390243905" width="6.2439024390243905"
        x="31.21951219512195" y="162.34146341463415" />
    <rect style="fill:#000000;shape-rendering:crispEdges;" height="6.2439024390243905" width="6.2439024390243905"
        x="56.19512195121951" y="162.34146341463415" />
    <rect style="fill:#000000;shape-rendering:crispEdges;" height="6.2439024390243905" width="6.2439024390243905"
        x="62.43902439024391" y="162.34146341463415" />
    <rect style="fill:#000000;shape-rendering:crispEdges;" height="6.2439024390243905" width="6.2439024390243905"
        x="68.6829268292683" y="162.34146341463415" />
    <rect style="fill:#000000;shape-rendering:crispEdges;" height="6.2439024390243905" width="6.2439024390243905"
        x="74.92682926829269" y="162.34146341463415" />
    <rect style="fill:#000000;shape-rendering:crispEdges;" height="6.2439024390243905" width="6.2439024390243905"
        x="93.65853658536585" y="162.34146341463415" />
    <rect style="fill:#000000;shape-rendering:crispEdges;" height="6.2439024390243905" width="6.2439024390243905"
        x="99.90243902439025" y="162.34146341463415" />
    <rect style="fill:#000000;shape-rendering:crispEdges;" height="6.2439024390243905" width="6.2439024390243905"
        x="106.14634146341464" y="162.34146341463415" />
    <rect style="fill:#000000;shape-rendering:crispEdges;" height="6.2439024390243905" width="6.2439024390243905"
        x="118.6341463414634" y="162.34146341463415" />
    <rect style="fill:#000000;shape-rendering:crispEdges;" height="6.2439024390243905" width="6.2439024390243905"
        x="124.8780487804878" y="162.34146341463415" />
    <rect style="fill:#000000;shape-rendering:crispEdges;" height="6.2439024390243905" width="6.2439024390243905"
        x="131.1219512195122" y="162.34146341463415" />
    <rect style="fill:#000000;shape-rendering:crispEdges;" height="6.2439024390243905" width="6.2439024390243905"
        x="149.85365853658536" y="162.34146341463415" />
    <rect style="fill:#000000;shape-rendering:crispEdges;" height="6.2439024390243905" width="6.2439024390243905"
        x="156.09756097560975" y="162.34146341463415" />
    <rect style="fill:#000000;shape-rendering:crispEdges;" height="6.2439024390243905" width="6.2439024390243905"
        x="168.58536585365854" y="162.34146341463415" />
    <rect style="fill:#000000;shape-rendering:crispEdges;" height="6.2439024390243905" width="6.2439024390243905"
        x="174.82926829268294" y="162.34146341463415" />
    <rect style="fill:#000000;shape-rendering:crispEdges;" height="6.2439024390243905" width="6.2439024390243905"
        x="206.0487804878049" y="162.34146341463415" />
    <rect style="fill:#000000;shape-rendering:crispEdges;" height="6.2439024390243905" width="6.2439024390243905"
        x="224.78048780487805" y="162.34146341463415" />
    <rect style="fill:#000000;shape-rendering:crispEdges;" height="6.2439024390243905" width="6.2439024390243905"
        x="68.6829268292683" y="168.58536585365854" />
    <rect style="fill:#000000;shape-rendering:crispEdges;" height="6.2439024390243905" width="6.2439024390243905"
        x="74.92682926829269" y="168.58536585365854" />
    <rect style="fill:#000000;shape-rendering:crispEdges;" height="6.2439024390243905" width="6.2439024390243905"
        x="81.17073170731707" y="168.58536585365854" />
    <rect style="fill:#000000;shape-rendering:crispEdges;" height="6.2439024390243905" width="6.2439024390243905"
        x="93.65853658536585" y="168.58536585365854" />
    <rect style="fill:#000000;shape-rendering:crispEdges;" height="6.2439024390243905" width="6.2439024390243905"
        x="106.14634146341464" y="168.58536585365854" />
    <rect style="fill:#000000;shape-rendering:crispEdges;" height="6.2439024390243905" width="6.2439024390243905"
        x="131.1219512195122" y="168.58536585365854" />
    <rect style="fill:#000000;shape-rendering:crispEdges;" height="6.2439024390243905" width="6.2439024390243905"
        x="137.3658536585366" y="168.58536585365854" />
    <rect style="fill:#000000;shape-rendering:crispEdges;" height="6.2439024390243905" width="6.2439024390243905"
        x="156.09756097560975" y="168.58536585365854" />
    <rect style="fill:#000000;shape-rendering:crispEdges;" height="6.2439024390243905" width="6.2439024390243905"
        x="181.0731707317073" y="168.58536585365854" />
    <rect style="fill:#000000;shape-rendering:crispEdges;" height="6.2439024390243905" width="6.2439024390243905"
        x="187.3170731707317" y="168.58536585365854" />
    <rect style="fill:#000000;shape-rendering:crispEdges;" height="6.2439024390243905" width="6.2439024390243905"
        x="193.5609756097561" y="168.58536585365854" />
    <rect style="fill:#000000;shape-rendering:crispEdges;" height="6.2439024390243905" width="6.2439024390243905"
        x="206.0487804878049" y="168.58536585365854" />
    <rect style="fill:#000000;shape-rendering:crispEdges;" height="6.2439024390243905" width="6.2439024390243905"
        x="224.78048780487805" y="168.58536585365854" />
    <rect style="fill:#000000;shape-rendering:crispEdges;" height="6.2439024390243905" width="6.2439024390243905"
        x="31.21951219512195" y="174.82926829268294" />
    <rect style="fill:#000000;shape-rendering:crispEdges;" height="6.2439024390243905" width="6.2439024390243905"
        x="43.707317073170735" y="174.82926829268294" />
    <rect style="fill:#000000;shape-rendering:crispEdges;" height="6.2439024390243905" width="6.2439024390243905"
        x="49.951219512195124" y="174.82926829268294" />
    <rect style="fill:#000000;shape-rendering:crispEdges;" height="6.2439024390243905" width="6.2439024390243905"
        x="56.19512195121951" y="174.82926829268294" />
    <rect style="fill:#000000;shape-rendering:crispEdges;" height="6.2439024390243905" width="6.2439024390243905"
        x="62.43902439024391" y="174.82926829268294" />
    <rect style="fill:#000000;shape-rendering:crispEdges;" height="6.2439024390243905" width="6.2439024390243905"
        x="87.41463414634146" y="174.82926829268294" />
    <rect style="fill:#000000;shape-rendering:crispEdges;" height="6.2439024390243905" width="6.2439024390243905"
        x="99.90243902439025" y="174.82926829268294" />
    <rect style="fill:#000000;shape-rendering:crispEdges;" height="6.2439024390243905" width="6.2439024390243905"
        x="118.6341463414634" y="174.82926829268294" />
    <rect style="fill:#000000;shape-rendering:crispEdges;" height="6.2439024390243905" width="6.2439024390243905"
        x="124.8780487804878" y="174.82926829268294" />
    <rect style="fill:#000000;shape-rendering:crispEdges;" height="6.2439024390243905" width="6.2439024390243905"
        x="149.85365853658536" y="174.82926829268294" />
    <rect style="fill:#000000;shape-rendering:crispEdges;" height="6.2439024390243905" width="6.2439024390243905"
        x="162.34146341463415" y="174.82926829268294" />
    <rect style="fill:#000000;shape-rendering:crispEdges;" height="6.2439024390243905" width="6.2439024390243905"
        x="174.82926829268294" y="174.82926829268294" />
    <rect style="fill:#000000;shape-rendering:crispEdges;" height="6.2439024390243905" width="6.2439024390243905"
        x="181.0731707317073" y="174.82926829268294" />
    <rect style="fill:#000000;shape-rendering:crispEdges;" height="6.2439024390243905" width="6.2439024390243905"
        x="187.3170731707317" y="174.82926829268294" />
    <rect style="fill:#000000;shape-rendering:crispEdges;" height="6.2439024390243905" width="6.2439024390243905"
        x="193.5609756097561" y="174.82926829268294" />
    <rect style="fill:#000000;shape-rendering:crispEdges;" height="6.2439024390243905" width="6.2439024390243905"
        x="199.8048780487805" y="174.82926829268294" />
    <rect style="fill:#000000;shape-rendering:crispEdges;" height="6.2439024390243905" width="6.2439024390243905"
        x="224.78048780487805" y="174.82926829268294" />
    <rect style="fill:#000000;shape-rendering:crispEdges;" height="6.2439024390243905" width="6.2439024390243905"
        x="74.92682926829269" y="181.0731707317073" />
    <rect style="fill:#000000;shape-rendering:crispEdges;" height="6.2439024390243905" width="6.2439024390243905"
        x="87.41463414634146" y="181.0731707317073" />
    <rect style="fill:#000000;shape-rendering:crispEdges;" height="6.2439024390243905" width="6.2439024390243905"
        x="93.65853658536585" y="181.0731707317073" />
    <rect style="fill:#000000;shape-rendering:crispEdges;" height="6.2439024390243905" width="6.2439024390243905"
        x="112.39024390243904" y="181.0731707317073" />
    <rect style="fill:#000000;shape-rendering:crispEdges;" height="6.2439024390243905" width="6.2439024390243905"
        x="118.6341463414634" y="181.0731707317073" />
    <rect style="fill:#000000;shape-rendering:crispEdges;" height="6.2439024390243905" width="6.2439024390243905"
        x="124.8780487804878" y="181.0731707317073" />
    <rect style="fill:#000000;shape-rendering:crispEdges;" height="6.2439024390243905" width="6.2439024390243905"
        x="156.09756097560975" y="181.0731707317073" />
    <rect style="fill:#000000;shape-rendering:crispEdges;" height="6.2439024390243905" width="6.2439024390243905"
        x="168.58536585365854" y="181.0731707317073" />
    <rect style="fill:#000000;shape-rendering:crispEdges;" height="6.2439024390243905" width="6.2439024390243905"
        x="174.82926829268294" y="181.0731707317073" />
    <rect style="fill:#000000;shape-rendering:crispEdges;" height="6.2439024390243905" width="6.2439024390243905"
        x="199.8048780487805" y="181.0731707317073" />
    <rect style="fill:#000000;shape-rendering:crispEdges;" height="6.2439024390243905" width="6.2439024390243905"
        x="206.0487804878049" y="181.0731707317073" />
    <rect style="fill:#000000;shape-rendering:crispEdges;" height="6.2439024390243905" width="6.2439024390243905"
        x="212.29268292682926" y="181.0731707317073" />
    <rect style="fill:#000000;shape-rendering:crispEdges;" height="6.2439024390243905" width="6.2439024390243905"
        x="218.53658536585365" y="181.0731707317073" />
    <rect style="fill:#000000;shape-rendering:crispEdges;" height="6.2439024390243905" width="6.2439024390243905"
        x="224.78048780487805" y="181.0731707317073" />
    <rect style="fill:#000000;shape-rendering:crispEdges;" height="6.2439024390243905" width="6.2439024390243905"
        x="24.975609756097562" y="187.3170731707317" />
    <rect style="fill:#000000;shape-rendering:crispEdges;" height="6.2439024390243905" width="6.2439024390243905"
        x="31.21951219512195" y="187.3170731707317" />
    <rect style="fill:#000000;shape-rendering:crispEdges;" height="6.2439024390243905" width="6.2439024390243905"
        x="37.463414634146346" y="187.3170731707317" />
    <rect style="fill:#000000;shape-rendering:crispEdges;" height="6.2439024390243905" width="6.2439024390243905"
        x="43.707317073170735" y="187.3170731707317" />
    <rect style="fill:#000000;shape-rendering:crispEdges;" height="6.2439024390243905" width="6.2439024390243905"
        x="49.951219512195124" y="187.3170731707317" />
    <rect style="fill:#000000;shape-rendering:crispEdges;" height="6.2439024390243905" width="6.2439024390243905"
        x="56.19512195121951" y="187.3170731707317" />
    <rect style="fill:#000000;shape-rendering:crispEdges;" height="6.2439024390243905" width="6.2439024390243905"
        x="62.43902439024391" y="187.3170731707317" />
    <rect style="fill:#000000;shape-rendering:crispEdges;" height="6.2439024390243905" width="6.2439024390243905"
        x="74.92682926829269" y="187.3170731707317" />
    <rect style="fill:#000000;shape-rendering:crispEdges;" height="6.2439024390243905" width="6.2439024390243905"
        x="99.90243902439025" y="187.3170731707317" />
    <rect style="fill:#000000;shape-rendering:crispEdges;" height="6.2439024390243905" width="6.2439024390243905"
        x="106.14634146341464" y="187.3170731707317" />
    <rect style="fill:#000000;shape-rendering:crispEdges;" height="6.2439024390243905" width="6.2439024390243905"
        x="112.39024390243904" y="187.3170731707317" />
    <rect style="fill:#000000;shape-rendering:crispEdges;" height="6.2439024390243905" width="6.2439024390243905"
        x="131.1219512195122" y="187.3170731707317" />
    <rect style="fill:#000000;shape-rendering:crispEdges;" height="6.2439024390243905" width="6.2439024390243905"
        x="137.3658536585366" y="187.3170731707317" />
    <rect style="fill:#000000;shape-rendering:crispEdges;" height="6.2439024390243905" width="6.2439024390243905"
        x="143.609756097561" y="187.3170731707317" />
    <rect style="fill:#000000;shape-rendering:crispEdges;" height="6.2439024390243905" width="6.2439024390243905"
        x="168.58536585365854" y="187.3170731707317" />
    <rect style="fill:#000000;shape-rendering:crispEdges;" height="6.2439024390243905" width="6.2439024390243905"
        x="174.82926829268294" y="187.3170731707317" />
    <rect style="fill:#000000;shape-rendering:crispEdges;" height="6.2439024390243905" width="6.2439024390243905"
        x="187.3170731707317" y="187.3170731707317" />
    <rect style="fill:#000000;shape-rendering:crispEdges;" height="6.2439024390243905" width="6.2439024390243905"
        x="199.8048780487805" y="187.3170731707317" />
    <rect style="fill:#000000;shape-rendering:crispEdges;" height="6.2439024390243905" width="6.2439024390243905"
        x="218.53658536585365" y="187.3170731707317" />
    <rect style="fill:#000000;shape-rendering:crispEdges;" height="6.2439024390243905" width="6.2439024390243905"
        x="24.975609756097562" y="193.5609756097561" />
    <rect style="fill:#000000;shape-rendering:crispEdges;" height="6.2439024390243905" width="6.2439024390243905"
        x="62.43902439024391" y="193.5609756097561" />
    <rect style="fill:#000000;shape-rendering:crispEdges;" height="6.2439024390243905" width="6.2439024390243905"
        x="93.65853658536585" y="193.5609756097561" />
    <rect style="fill:#000000;shape-rendering:crispEdges;" height="6.2439024390243905" width="6.2439024390243905"
        x="99.90243902439025" y="193.5609756097561" />
    <rect style="fill:#000000;shape-rendering:crispEdges;" height="6.2439024390243905" width="6.2439024390243905"
        x="106.14634146341464" y="193.5609756097561" />
    <rect style="fill:#000000;shape-rendering:crispEdges;" height="6.2439024390243905" width="6.2439024390243905"
        x="112.39024390243904" y="193.5609756097561" />
    <rect style="fill:#000000;shape-rendering:crispEdges;" height="6.2439024390243905" width="6.2439024390243905"
        x="124.8780487804878" y="193.5609756097561" />
    <rect style="fill:#000000;shape-rendering:crispEdges;" height="6.2439024390243905" width="6.2439024390243905"
        x="137.3658536585366" y="193.5609756097561" />
    <rect style="fill:#000000;shape-rendering:crispEdges;" height="6.2439024390243905" width="6.2439024390243905"
        x="156.09756097560975" y="193.5609756097561" />
    <rect style="fill:#000000;shape-rendering:crispEdges;" height="6.2439024390243905" width="6.2439024390243905"
        x="168.58536585365854" y="193.5609756097561" />
    <rect style="fill:#000000;shape-rendering:crispEdges;" height="6.2439024390243905" width="6.2439024390243905"
        x="174.82926829268294" y="193.5609756097561" />
    <rect style="fill:#000000;shape-rendering:crispEdges;" height="6.2439024390243905" width="6.2439024390243905"
        x="199.8048780487805" y="193.5609756097561" />
    <rect style="fill:#000000;shape-rendering:crispEdges;" height="6.2439024390243905" width="6.2439024390243905"
        x="206.0487804878049" y="193.5609756097561" />
    <rect style="fill:#000000;shape-rendering:crispEdges;" height="6.2439024390243905" width="6.2439024390243905"
        x="212.29268292682926" y="193.5609756097561" />
    <rect style="fill:#000000;shape-rendering:crispEdges;" height="6.2439024390243905" width="6.2439024390243905"
        x="218.53658536585365" y="193.5609756097561" />
    <rect style="fill:#000000;shape-rendering:crispEdges;" height="6.2439024390243905" width="6.2439024390243905"
        x="224.78048780487805" y="193.5609756097561" />
    <rect style="fill:#000000;shape-rendering:crispEdges;" height="6.2439024390243905" width="6.2439024390243905"
        x="24.975609756097562" y="199.8048780487805" />
    <rect style="fill:#000000;shape-rendering:crispEdges;" height="6.2439024390243905" width="6.2439024390243905"
        x="37.463414634146346" y="199.8048780487805" />
    <rect style="fill:#000000;shape-rendering:crispEdges;" height="6.2439024390243905" width="6.2439024390243905"
        x="43.707317073170735" y="199.8048780487805" />
    <rect style="fill:#000000;shape-rendering:crispEdges;" height="6.2439024390243905" width="6.2439024390243905"
        x="49.951219512195124" y="199.8048780487805" />
    <rect style="fill:#000000;shape-rendering:crispEdges;" height="6.2439024390243905" width="6.2439024390243905"
        x="62.43902439024391" y="199.8048780487805" />
    <rect style="fill:#000000;shape-rendering:crispEdges;" height="6.2439024390243905" width="6.2439024390243905"
        x="81.17073170731707" y="199.8048780487805" />
    <rect style="fill:#000000;shape-rendering:crispEdges;" height="6.2439024390243905" width="6.2439024390243905"
        x="87.41463414634146" y="199.8048780487805" />
    <rect style="fill:#000000;shape-rendering:crispEdges;" height="6.2439024390243905" width="6.2439024390243905"
        x="93.65853658536585" y="199.8048780487805" />
    <rect style="fill:#000000;shape-rendering:crispEdges;" height="6.2439024390243905" width="6.2439024390243905"
        x="112.39024390243904" y="199.8048780487805" />
    <rect style="fill:#000000;shape-rendering:crispEdges;" height="6.2439024390243905" width="6.2439024390243905"
        x="118.6341463414634" y="199.8048780487805" />
    <rect style="fill:#000000;shape-rendering:crispEdges;" height="6.2439024390243905" width="6.2439024390243905"
        x="124.8780487804878" y="199.8048780487805" />
    <rect style="fill:#000000;shape-rendering:crispEdges;" height="6.2439024390243905" width="6.2439024390243905"
        x="143.609756097561" y="199.8048780487805" />
    <rect style="fill:#000000;shape-rendering:crispEdges;" height="6.2439024390243905" width="6.2439024390243905"
        x="149.85365853658536" y="199.8048780487805" />
    <rect style="fill:#000000;shape-rendering:crispEdges;" height="6.2439024390243905" width="6.2439024390243905"
        x="156.09756097560975" y="199.8048780487805" />
    <rect style="fill:#000000;shape-rendering:crispEdges;" height="6.2439024390243905" width="6.2439024390243905"
        x="162.34146341463415" y="199.8048780487805" />
    <rect style="fill:#000000;shape-rendering:crispEdges;" height="6.2439024390243905" width="6.2439024390243905"
        x="168.58536585365854" y="199.8048780487805" />
    <rect style="fill:#000000;shape-rendering:crispEdges;" height="6.2439024390243905" width="6.2439024390243905"
        x="174.82926829268294" y="199.8048780487805" />
    <rect style="fill:#000000;shape-rendering:crispEdges;" height="6.2439024390243905" width="6.2439024390243905"
        x="181.0731707317073" y="199.8048780487805" />
    <rect style="fill:#000000;shape-rendering:crispEdges;" height="6.2439024390243905" width="6.2439024390243905"
        x="187.3170731707317" y="199.8048780487805" />
    <rect style="fill:#000000;shape-rendering:crispEdges;" height="6.2439024390243905" width="6.2439024390243905"
        x="193.5609756097561" y="199.8048780487805" />
    <rect style="fill:#000000;shape-rendering:crispEdges;" height="6.2439024390243905" width="6.2439024390243905"
        x="199.8048780487805" y="199.8048780487805" />
    <rect style="fill:#000000;shape-rendering:crispEdges;" height="6.2439024390243905" width="6.2439024390243905"
        x="206.0487804878049" y="199.8048780487805" />
    <rect style="fill:#000000;shape-rendering:crispEdges;" height="6.2439024390243905" width="6.2439024390243905"
        x="212.29268292682926" y="199.8048780487805" />
    <rect style="fill:#000000;shape-rendering:crispEdges;" height="6.2439024390243905" width="6.2439024390243905"
        x="218.53658536585365" y="199.8048780487805" />
    <rect style="fill:#000000;shape-rendering:crispEdges;" height="6.2439024390243905" width="6.2439024390243905"
        x="24.975609756097562" y="206.0487804878049" />
    <rect style="fill:#000000;shape-rendering:crispEdges;" height="6.2439024390243905" width="6.2439024390243905"
        x="37.463414634146346" y="206.0487804878049" />
    <rect style="fill:#000000;shape-rendering:crispEdges;" height="6.2439024390243905" width="6.2439024390243905"
        x="43.707317073170735" y="206.0487804878049" />
    <rect style="fill:#000000;shape-rendering:crispEdges;" height="6.2439024390243905" width="6.2439024390243905"
        x="49.951219512195124" y="206.0487804878049" />
    <rect style="fill:#000000;shape-rendering:crispEdges;" height="6.2439024390243905" width="6.2439024390243905"
        x="62.43902439024391" y="206.0487804878049" />
    <rect style="fill:#000000;shape-rendering:crispEdges;" height="6.2439024390243905" width="6.2439024390243905"
        x="74.92682926829269" y="206.0487804878049" />
    <rect style="fill:#000000;shape-rendering:crispEdges;" height="6.2439024390243905" width="6.2439024390243905"
        x="81.17073170731707" y="206.0487804878049" />
    <rect style="fill:#000000;shape-rendering:crispEdges;" height="6.2439024390243905" width="6.2439024390243905"
        x="93.65853658536585" y="206.0487804878049" />
    <rect style="fill:#000000;shape-rendering:crispEdges;" height="6.2439024390243905" width="6.2439024390243905"
        x="112.39024390243904" y="206.0487804878049" />
    <rect style="fill:#000000;shape-rendering:crispEdges;" height="6.2439024390243905" width="6.2439024390243905"
        x="118.6341463414634" y="206.0487804878049" />
    <rect style="fill:#000000;shape-rendering:crispEdges;" height="6.2439024390243905" width="6.2439024390243905"
        x="131.1219512195122" y="206.0487804878049" />
    <rect style="fill:#000000;shape-rendering:crispEdges;" height="6.2439024390243905" width="6.2439024390243905"
        x="137.3658536585366" y="206.0487804878049" />
    <rect style="fill:#000000;shape-rendering:crispEdges;" height="6.2439024390243905" width="6.2439024390243905"
        x="143.609756097561" y="206.0487804878049" />
    <rect style="fill:#000000;shape-rendering:crispEdges;" height="6.2439024390243905" width="6.2439024390243905"
        x="149.85365853658536" y="206.0487804878049" />
    <rect style="fill:#000000;shape-rendering:crispEdges;" height="6.2439024390243905" width="6.2439024390243905"
        x="156.09756097560975" y="206.0487804878049" />
    <rect style="fill:#000000;shape-rendering:crispEdges;" height="6.2439024390243905" width="6.2439024390243905"
        x="174.82926829268294" y="206.0487804878049" />
    <rect style="fill:#000000;shape-rendering:crispEdges;" height="6.2439024390243905" width="6.2439024390243905"
        x="193.5609756097561" y="206.0487804878049" />
    <rect style="fill:#000000;shape-rendering:crispEdges;" height="6.2439024390243905" width="6.2439024390243905"
        x="199.8048780487805" y="206.0487804878049" />
    <rect style="fill:#000000;shape-rendering:crispEdges;" height="6.2439024390243905" width="6.2439024390243905"
        x="206.0487804878049" y="206.0487804878049" />
    <rect style="fill:#000000;shape-rendering:crispEdges;" height="6.2439024390243905" width="6.2439024390243905"
        x="224.78048780487805" y="206.0487804878049" />
    <rect style="fill:#000000;shape-rendering:crispEdges;" height="6.2439024390243905" width="6.2439024390243905"
        x="24.975609756097562" y="212.29268292682926" />
    <rect style="fill:#000000;shape-rendering:crispEdges;" height="6.2439024390243905" width="6.2439024390243905"
        x="37.463414634146346" y="212.29268292682926" />
    <rect style="fill:#000000;shape-rendering:crispEdges;" height="6.2439024390243905" width="6.2439024390243905"
        x="43.707317073170735" y="212.29268292682926" />
    <rect style="fill:#000000;shape-rendering:crispEdges;" height="6.2439024390243905" width="6.2439024390243905"
        x="49.951219512195124" y="212.29268292682926" />
    <rect style="fill:#000000;shape-rendering:crispEdges;" height="6.2439024390243905" width="6.2439024390243905"
        x="62.43902439024391" y="212.29268292682926" />
    <rect style="fill:#000000;shape-rendering:crispEdges;" height="6.2439024390243905" width="6.2439024390243905"
        x="74.92682926829269" y="212.29268292682926" />
    <rect style="fill:#000000;shape-rendering:crispEdges;" height="6.2439024390243905" width="6.2439024390243905"
        x="81.17073170731707" y="212.29268292682926" />
    <rect style="fill:#000000;shape-rendering:crispEdges;" height="6.2439024390243905" width="6.2439024390243905"
        x="87.41463414634146" y="212.29268292682926" />
    <rect style="fill:#000000;shape-rendering:crispEdges;" height="6.2439024390243905" width="6.2439024390243905"
        x="93.65853658536585" y="212.29268292682926" />
    <rect style="fill:#000000;shape-rendering:crispEdges;" height="6.2439024390243905" width="6.2439024390243905"
        x="106.14634146341464" y="212.29268292682926" />
    <rect style="fill:#000000;shape-rendering:crispEdges;" height="6.2439024390243905" width="6.2439024390243905"
        x="112.39024390243904" y="212.29268292682926" />
    <rect style="fill:#000000;shape-rendering:crispEdges;" height="6.2439024390243905" width="6.2439024390243905"
        x="118.6341463414634" y="212.29268292682926" />
    <rect style="fill:#000000;shape-rendering:crispEdges;" height="6.2439024390243905" width="6.2439024390243905"
        x="131.1219512195122" y="212.29268292682926" />
    <rect style="fill:#000000;shape-rendering:crispEdges;" height="6.2439024390243905" width="6.2439024390243905"
        x="137.3658536585366" y="212.29268292682926" />
    <rect style="fill:#000000;shape-rendering:crispEdges;" height="6.2439024390243905" width="6.2439024390243905"
        x="143.609756097561" y="212.29268292682926" />
    <rect style="fill:#000000;shape-rendering:crispEdges;" height="6.2439024390243905" width="6.2439024390243905"
        x="156.09756097560975" y="212.29268292682926" />
    <rect style="fill:#000000;shape-rendering:crispEdges;" height="6.2439024390243905" width="6.2439024390243905"
        x="162.34146341463415" y="212.29268292682926" />
    <rect style="fill:#000000;shape-rendering:crispEdges;" height="6.2439024390243905" width="6.2439024390243905"
        x="168.58536585365854" y="212.29268292682926" />
    <rect style="fill:#000000;shape-rendering:crispEdges;" height="6.2439024390243905" width="6.2439024390243905"
        x="181.0731707317073" y="212.29268292682926" />
    <rect style="fill:#000000;shape-rendering:crispEdges;" height="6.2439024390243905" width="6.2439024390243905"
        x="187.3170731707317" y="212.29268292682926" />
    <rect style="fill:#000000;shape-rendering:crispEdges;" height="6.2439024390243905" width="6.2439024390243905"
        x="193.5609756097561" y="212.29268292682926" />
    <rect style="fill:#000000;shape-rendering:crispEdges;" height="6.2439024390243905" width="6.2439024390243905"
        x="218.53658536585365" y="212.29268292682926" />
    <rect style="fill:#000000;shape-rendering:crispEdges;" height="6.2439024390243905" width="6.2439024390243905"
        x="24.975609756097562" y="218.53658536585365" />
    <rect style="fill:#000000;shape-rendering:crispEdges;" height="6.2439024390243905" width="6.2439024390243905"
        x="62.43902439024391" y="218.53658536585365" />
    <rect style="fill:#000000;shape-rendering:crispEdges;" height="6.2439024390243905" width="6.2439024390243905"
        x="74.92682926829269" y="218.53658536585365" />
    <rect style="fill:#000000;shape-rendering:crispEdges;" height="6.2439024390243905" width="6.2439024390243905"
        x="87.41463414634146" y="218.53658536585365" />
    <rect style="fill:#000000;shape-rendering:crispEdges;" height="6.2439024390243905" width="6.2439024390243905"
        x="93.65853658536585" y="218.53658536585365" />
    <rect style="fill:#000000;shape-rendering:crispEdges;" height="6.2439024390243905" width="6.2439024390243905"
        x="106.14634146341464" y="218.53658536585365" />
    <rect style="fill:#000000;shape-rendering:crispEdges;" height="6.2439024390243905" width="6.2439024390243905"
        x="112.39024390243904" y="218.53658536585365" />
    <rect style="fill:#000000;shape-rendering:crispEdges;" height="6.2439024390243905" width="6.2439024390243905"
        x="149.85365853658536" y="218.53658536585365" />
    <rect style="fill:#000000;shape-rendering:crispEdges;" height="6.2439024390243905" width="6.2439024390243905"
        x="162.34146341463415" y="218.53658536585365" />
    <rect style="fill:#000000;shape-rendering:crispEdges;" height="6.2439024390243905" width="6.2439024390243905"
        x="187.3170731707317" y="218.53658536585365" />
    <rect style="fill:#000000;shape-rendering:crispEdges;" height="6.2439024390243905" width="6.2439024390243905"
        x="199.8048780487805" y="218.53658536585365" />
    <rect style="fill:#000000;shape-rendering:crispEdges;" height="6.2439024390243905" width="6.2439024390243905"
        x="212.29268292682926" y="218.53658536585365" />
    <rect style="fill:#000000;shape-rendering:crispEdges;" height="6.2439024390243905" width="6.2439024390243905"
        x="224.78048780487805" y="218.53658536585365" />
    <rect style="fill:#000000;shape-rendering:crispEdges;" height="6.2439024390243905" width="6.2439024390243905"
        x="24.975609756097562" y="224.78048780487805" />
    <rect style="fill:#000000;shape-rendering:crispEdges;" height="6.2439024390243905" width="6.2439024390243905"
        x="31.21951219512195" y="224.78048780487805" />
    <rect style="fill:#000000;shape-rendering:crispEdges;" height="6.2439024390243905" width="6.2439024390243905"
        x="37.463414634146346" y="224.78048780487805" />
    <rect style="fill:#000000;shape-rendering:crispEdges;" height="6.2439024390243905" width="6.2439024390243905"
        x="43.707317073170735" y="224.78048780487805" />
    <rect style="fill:#000000;shape-rendering:crispEdges;" height="6.2439024390243905" width="6.2439024390243905"
        x="49.951219512195124" y="224.78048780487805" />
    <rect style="fill:#000000;shape-rendering:crispEdges;" height="6.2439024390243905" width="6.2439024390243905"
        x="56.19512195121951" y="224.78048780487805" />
    <rect style="fill:#000000;shape-rendering:crispEdges;" height="6.2439024390243905" width="6.2439024390243905"
        x="62.43902439024391" y="224.78048780487805" />
    <rect style="fill:#000000;shape-rendering:crispEdges;" height="6.2439024390243905" width="6.2439024390243905"
        x="93.65853658536585" y="224.78048780487805" />
    <rect style="fill:#000000;shape-rendering:crispEdges;" height="6.2439024390243905" width="6.2439024390243905"
        x="106.14634146341464" y="224.78048780487805" />
    <rect style="fill:#000000;shape-rendering:crispEdges;" height="6.2439024390243905" width="6.2439024390243905"
        x="118.6341463414634" y="224.78048780487805" />
    <rect style="fill:#000000;shape-rendering:crispEdges;" height="6.2439024390243905" width="6.2439024390243905"
        x="124.8780487804878" y="224.78048780487805" />
    <rect style="fill:#000000;shape-rendering:crispEdges;" height="6.2439024390243905" width="6.2439024390243905"
        x="131.1219512195122" y="224.78048780487805" />
    <rect style="fill:#000000;shape-rendering:crispEdges;" height="6.2439024390243905" width="6.2439024390243905"
        x="137.3658536585366" y="224.78048780487805" />
    <rect style="fill:#000000;shape-rendering:crispEdges;" height="6.2439024390243905" width="6.2439024390243905"
        x="149.85365853658536" y="224.78048780487805" />
    <rect style="fill:#000000;shape-rendering:crispEdges;" height="6.2439024390243905" width="6.2439024390243905"
        x="181.0731707317073" y="224.78048780487805" />
    <rect style="fill:#000000;shape-rendering:crispEdges;" height="6.2439024390243905" width="6.2439024390243905"
        x="199.8048780487805" y="224.78048780487805" />
    <rect style="fill:#000000;shape-rendering:crispEdges;" height="6.2439024390243905" width="6.2439024390243905"
        x="206.0487804878049" y="224.78048780487805" />
    <rect style="fill:#000000;shape-rendering:crispEdges;" height="6.2439024390243905" width="6.2439024390243905"
        x="212.29268292682926" y="224.78048780487805" />
</svg>